<?xml version="1.0" encoding="utf-8"?>
<!-- Generator: Adobe Illustrator 27.2.0, SVG Export Plug-In . SVG Version: 6.00 Build 0)  -->
<svg version="1.1" id="Ebene_1" xmlns="http://www.w3.org/2000/svg" xmlns:xlink="http://www.w3.org/1999/xlink" x="0px" y="0px"
	 viewBox="0 0 740.4 551.8" style="enable-background:new 0 0 740.4 551.8;" xml:space="preserve">
<style type="text/css">
	.st0{fill:#B2C1CE;}
	.st1{fill:#E5EAEF;}
	.st2{fill:#FFFFFF;}
	.st3{fill:#4D6D8E;}
	.st4{fill:none;stroke:#1A446D;}
	.st5{fill:#002F5D;}
	.st6{fill:#A17861;}
	.st7{fill:#1A446D;}
	.st8{fill:#66829E;}
	.st9{fill:#947059;}
	.st10{fill:#33587D;}
	.st11{fill:none;stroke:#FFFFFF;stroke-width:4.08;stroke-miterlimit:10;}
	.st12{fill:#E5A682;}
</style>
<g>
	<path class="st0" d="M607.5,491c-41.2,0-74.7,8.7-74.7,19.4c0,10.7,33.4,19.4,74.7,19.4c41.2,0,74.7-8.7,74.7-19.4
		C682.1,499.7,648.7,491,607.5,491"/>
	<path class="st1" d="M379.4,526.3c142,0,257.2-115.1,257.2-257.2S521.4,11.9,379.4,11.9S122.2,127.1,122.2,269.1
		S237.3,526.3,379.4,526.3"/>
	<path class="st2" d="M137.3,255.1h-2.1c-0.5,8.8-0.5,17.7-0.1,26.7c3.2,63.9,30,122.9,75.8,167.2l1.3-1.5
		C158.6,395.7,133.3,324.9,137.3,255.1"/>
	<path class="st2" d="M597.2,431.2c2.4-3.2,4.7-6.4,6.9-9.7l-1.6-1.1c-2.2,3.2-4.5,6.5-6.9,9.6L597.2,431.2L597.2,431.2z"/>
	<path class="st2" d="M641.5,205.9l1.9-0.5c-0.9-3.8-2-7.7-3.1-11.5l-1.9,0.6C639.5,198.2,640.6,202.1,641.5,205.9"/>
	<path class="st3" d="M539.9,129.9c2.7-12.8,3.3-26-1-38.5c-4.9-14.4-20.4-14.7-20.4-14.7h-216v53.1H539.9L539.9,129.9z"/>
	<path class="st2" d="M502.3,419.8c0,30.7-13.9,50.7-42,50.7H258.8V108.1c0-19.5,6.7-31.3,27.4-31.3h233.4
		c-19.4,3.3-17.3,34.4-17.3,34.4L502.3,419.8L502.3,419.8z"/>
</g>
<rect x="302.2" y="176.5" class="st3" width="71.1" height="5.8"/>
<rect x="302.2" y="164.4" class="st3" width="71.1" height="5.8"/>
<rect x="336.1" y="201.2" class="st3" width="119.4" height="5.8"/>
<rect x="302.2" y="214.5" class="st3" width="153.2" height="5.9"/>
<rect x="302.2" y="227.7" class="st3" width="153.2" height="5.8"/>
<rect x="302.2" y="241" class="st3" width="153.2" height="5.9"/>
<rect x="336.1" y="263.6" class="st3" width="119.4" height="5.8"/>
<rect x="302.2" y="276.9" class="st3" width="153.2" height="5.9"/>
<rect x="302.2" y="290.1" class="st3" width="153.2" height="5.8"/>
<rect x="302.2" y="303.3" class="st3" width="115.4" height="5.9"/>
<rect x="364.2" y="371.8" class="st3" width="71.1" height="5.8"/>
<path class="st3" d="M446.7,455.9c-4.2-12.5-3.7-25.7-1-38.5h-216c-2.7,12.8-3.3,26,1,38.5c4.9,14.4,20.4,14.7,20.4,14.7h216
	C466.1,470.5,451.4,469.8,446.7,455.9"/>
<rect x="215.2" y="131.4" class="st2" width="8" height="7.6"/>
<rect x="215.2" y="146.5" class="st2" width="8" height="7.6"/>
<rect x="199.2" y="146.5" class="st2" width="8" height="7.6"/>
<rect x="231.2" y="146.5" class="st2" width="8" height="7.6"/>
<rect x="215.2" y="161.5" class="st2" width="8" height="7.6"/>
<rect x="528.4" y="412.3" class="st2" width="8" height="7.6"/>
<rect x="528.4" y="427.4" class="st2" width="8" height="7.6"/>
<rect x="512.3" y="427.4" class="st2" width="8" height="7.6"/>
<rect x="544.4" y="427.4" class="st2" width="8" height="7.6"/>
<rect x="528.4" y="442.5" class="st2" width="8" height="7.6"/>
<path class="st2" d="M205.9,290.7c-17.4,0-34.8-6.7-34.8-6.7v3.2c0,0,17.4,6.7,34.8,6.7s34.8-6.7,34.8-6.7V284
	C240.7,284,223.3,290.7,205.9,290.7"/>
<rect x="203.3" y="246.2" class="st2" width="5.3" height="5"/>
<rect x="192.7" y="246.2" class="st2" width="5.3" height="5"/>
<rect x="203.3" y="256.2" class="st2" width="5.3" height="5"/>
<rect x="192.7" y="256.2" class="st2" width="5.3" height="5"/>
<rect x="203.3" y="266.2" class="st2" width="5.3" height="5"/>
<rect x="192.7" y="266.2" class="st2" width="5.3" height="5"/>
<g>
	<path class="st4" d="M360.7,354.8h-9c3.6,0,9.6,1.3,12.9,0.2c4.2-1.5,5.1-5.2,8.7-8c-1.2-3-5-2.4-7.8-1.8c0.6-3.1,4.3-6.8,6.8-9.2
		c-3.2,3.1-8.1,6.2-8,11.1c3,1,5.3-1.3,8.3-1.7c-0.1,1.2,0.3,2.2,1.2,3c7.8-2.4,12.4-14.8,18-20.5c-3.2,2.7-14.4,14.6-10.9,19.1
		c4.1,5.2,18.4-4.6,18.4-8.9c-5.6-2.2-17.4,4.4-15.5,11.5c5.4,1.3,19.8,0.3,19-7.9c-10.5,0.4-28.2,20-9.9,19.7
		c15.5-0.2,22.7-14.4,33-22.9c1.4,4.1-1.7,7.3-1.5,10c0.5,5.8,1.9,2.7,7.5,3.8c6,1.2,12.1,6,18.8,4.9"/>
	<path class="st5" d="M337,87.4l-26.8-46.3c-2.4-4.1-6.8-6.7-11.6-6.7h-53.5c-4.8,0-9.2,2.5-11.6,6.7l-26.8,46.3
		c-2.4,4.1-2.4,9.2,0,13.4l26.8,46.3c2.4,4.1,6.8,6.7,11.6,6.7h53.5c4.8,0,9.2-2.5,11.6-6.7l26.8-46.3
		C339.4,96.6,339.4,91.5,337,87.4"/>
	<path class="st6" d="M575.5,505.2c5-0.7,14.7-8.5,15.1-12.2l7.4-0.3c0,0,3.3,8,4,17.4c0,0-5.6,0.4-9,0c-3.4-0.4-15.4,2.4-22.1-1.5
		C571,508.7,570.5,505.9,575.5,505.2"/>
	<path class="st6" d="M629.7,505.7c5-0.9,13.7-10.3,14-14.1l7.4-0.5c0,0,3.3,5.4,4.4,14.8c0,0-5.5,2.7-8.9,2.4
		c-3.4-0.3-14.4,4.7-21.3,1.1C625.3,509.3,624.7,506.6,629.7,505.7"/>
	<path class="st5" d="M575.5,505.2c0.5-0.1,1-0.2,1.6-0.4c4.2,1,8.4,1.7,12.7,1.1c0.9-0.1,1.8-0.3,2.6-0.6c1.4-0.1,2.8-0.1,4.3-0.1
		c1.6,0,3.1-0.4,4.6-1.1c0.4,1.9,0.7,3.9,0.8,6c0,0-5.6,0.4-9,0c-3.4-0.4-15.4,2.4-22.1-1.5C571,508.7,570.5,505.9,575.5,505.2"/>
	<path class="st5" d="M629.7,505.7c1.2-0.2,2.7-1,4.2-2c5.6,0.2,11.1-0.5,16.4-2.6c1.4-0.6,2.7-1.4,3.9-2.4c0.6,2,1.1,4.4,1.4,7.1
		c0,0-5.5,2.7-8.9,2.4c-3.4-0.3-14.4,4.7-21.3,1.1C625.3,509.3,624.7,506.6,629.7,505.7"/>
	<path class="st5" d="M591.3,322.9c0,0,52.4-7.3,53.2-2.8c3.1,17.9,1.8,32.7,1.8,39.9c0,6.4,0.4,51.7,0.5,61.1
		c0.8,6.6,2.4,12.7,3.1,22.1c1.4,18.1,1.9,41.2,2.3,49.5c-0.1,0-0.2,0.1-0.3,0.1c-2.8,1.5-6.4,1.8-9.5,2.2c-1.1-3.9-5-19.7-8.5-39.2
		c-2-11.2-6-22.4-7.3-30.9c-5.3-27.1-10.1-56.3-10.1-56.3l-9.7,54.1h0c0.1,3.6,0.4,7.4-0.2,14.1c-1.9,23-6.5,59.1-6.5,59.1
		c0,0.1-0.1,0.2-0.1,0.3c-0.3,0-0.6,0-0.9,0.1c-3.7,0.5-7.5,0-11.1-1.2c-0.1-5.1-0.6-26.7-0.8-46.9c-0.1-11.6-0.2-17-0.1-25.8v0
		C586.9,346.7,591.3,322.9,591.3,322.9"/>
	<path class="st5" d="M629.3,182.6c12,2.6,21.2,17.8,18.4,30.6c-2.8,12.9-14.6,23-28.5,15.9c-10.9-5.5-19.4-15.1-16.6-28
		C605.3,188.4,617.3,180,629.3,182.6"/>
	<path class="st6" d="M584.9,296.1c2.3-4.7,1.1-9.2-1.7-12.3c0.2-0.3,0.3-0.5,0.5-0.8c0.5-0.9,1.1-1.9,1.7-3
		c0.6-1.1,1.2-2.2,1.7-3.5c0.6-1.2,1.1-2.5,1.6-3.8c0.5-1.3,1-2.7,1.5-4c0.4-1.4,0.8-2.7,1.2-4.1c0.3-1.4,0.7-2.7,1-4
		c0.3-1.3,0.5-2.6,0.7-3.8c0.2-1.2,0.3-2.4,0.5-3.4c0.1-1.1,0.3-2,0.3-2.9c0.1-0.9,0.1-1.6,0.2-2.3c0.1-1.3,0.2-2,0.2-2l0-0.4
		c0.4-5.1,4.9-8.9,10-8.5s8.9,4.8,8.5,9.9c0,0.2,0,0.5-0.1,0.7c0,0-0.1,0.9-0.4,2.3c-0.1,0.7-0.3,1.7-0.4,2.7
		c-0.1,1-0.4,2.2-0.7,3.5c-0.3,1.3-0.5,2.6-0.9,4.1c-0.4,1.4-0.8,2.9-1.2,4.5c-0.5,1.5-1,3.1-1.5,4.8c-0.6,1.6-1.2,3.2-1.8,4.8
		c-0.7,1.6-1.4,3.2-2.1,4.7c-0.8,1.5-1.5,3-2.3,4.5c-0.8,1.4-1.6,2.8-2.4,4.1c-0.8,1.3-1.6,2.5-2.3,3.5c-1.5,2.2-2.9,3.9-4,5.1
		c-0.6,0.6-1,1.1-1.4,1.5c-0.3,0.3-0.5,0.5-0.5,0.5c-0.6,0.7-1.3,1.2-2.1,1.5c-0.5,0.4-1.1,0.7-1.7,0.9c-0.4,0.2-0.8,0.3-1.2,0.4
		c0,0-0.8,0.2-2.3,0.4c-0.7,0.1-1.6,0.3-2.6,0.4c-0.1,0-0.2,0-0.4,0C582.1,300.6,583.7,298.5,584.9,296.1"/>
	<path class="st7" d="M591.9,256c-0.8-9.7,1.1-19.7,16.9-23.1c6.3-1.4,16-1.8,22,0.3c20.6,7.1,21.1,13.7,19.3,25.3
		c0,0-7.5,32.4-6.7,42.6c0.7,8.9,3.2,33,3.8,36h-57.9c0.2-1.7,2.6-22.1,3.6-26.5c1.9-8.2,3-14.6,2.3-22.9l-0.6-6.1
		c-4.4-1.1-7.6-5.1-7.6-9.8v-0.8C590.3,262.3,591.1,261.6,591.9,256L591.9,256L591.9,256z"/>
	<path class="st2" d="M650.3,257.4L650.3,257.4L650.3,257.4 M650.3,257.5c0,0.3-0.1,0.6-0.1,0.9
		C650.2,258.1,650.3,257.8,650.3,257.5 M595.5,292.7c0,6-1,11.3-2.5,17.7c-1,4.4-3.4,24.8-3.6,26.5c0.2-1.7,2.6-22.1,3.6-26.5
		C594.5,304,595.5,298.7,595.5,292.7"/>
	<path class="st7" d="M650.1,246.5c1.1,3.2,0.9,6.7,0.3,10.9l0,0c0,0,0,0,0,0c0,0.3-0.1,0.6-0.1,0.9c0,0,0,0,0,0
		c0,0-6.8,29.2-6.8,40.8c0,0.6,0,1.2,0.1,1.7c0.7,8.9,3.2,33,3.8,36h-57.9c0.2-1.7,2.6-22.1,3.6-26.5c1.5-6.4,2.5-11.7,2.5-17.7
		c0-1.7-0.1-3.4-0.2-5.2l-0.6-6.1c-0.2,0-0.4-0.1-0.6-0.2c6.3-1,12.4-2.9,18.1-5.9c10.4-5.4,18.6-14.6,24.9-24.4
		c1.4-0.5,2.5-0.7,3.5-0.7s1.9,0.2,2.7,0.4c0.8,0.2,1.5,0.4,2.1,0.4c1.2,0,2.4-0.6,3.9-2.9C649.6,247.5,649.8,247,650.1,246.5"/>
	<path class="st6" d="M612.1,240.1c-1.8-1.3-1.7-3.6-1.1-5.8c0.1-0.2,0.1-0.5,0.2-0.7l0.1-0.2c0,0,0.1-0.2,0.2-0.6
		c0.1-0.4,0.3-0.9,0.5-1.5c0.4-1.3,0.9-3,1.2-4.8c0.3-1.8,0.5-3.7,0.6-5c0-0.7,0.1-1.3,0.1-1.6c0-0.2,0-0.3,0-0.4c0-0.1,0-0.2,0-0.2
		V219c0-2.5,2-4.5,4.5-4.5c2.3,0,4.2,1.7,4.5,3.9c0,0,0,0.3,0.1,0.9c0.1,0.5,0.1,1.2,0.2,2.1c0.1,1.7,0.2,4,0.1,6.2
		c-0.1,2.3-0.4,4.6-0.7,6.3c-0.1,0.9-0.3,1.6-0.4,2.1c-0.1,0.5-0.2,0.8-0.2,0.8c-0.6,2.5-3.4,5.2-5.8,5.3c-0.5,0-6.2,11.8-6.2,11.8
		S612.7,240.5,612.1,240.1"/>
	<path class="st5" d="M615.6,215.4c-1.1,0.8-1.7,2.1-1.7,3.6C613.9,217.5,614.6,216.2,615.6,215.4 M622,216.3
		C622,216.3,622,216.3,622,216.3C622,216.3,622,216.3,622,216.3 M622,216.3c0.4,0.6,0.8,1.3,0.9,2.1c0,0,0,0.3,0.1,0.9
		c0,0.3,0.1,0.6,0.1,0.9c0-0.4-0.1-0.7-0.1-0.9c-0.1-0.5-0.1-0.9-0.1-0.9C622.7,217.6,622.4,216.9,622,216.3"/>
	<path class="st1" d="M613.3,225.6L613.3,225.6c0,0.3-0.1,0.6-0.2,0.9c-0.2,1.3-0.5,2.6-0.9,3.6c0.3-1.1,0.6-2.3,0.9-3.6
		C613.2,226.2,613.3,225.9,613.3,225.6"/>
	<path class="st5" d="M613.9,219.4L613.9,219.4c0,0.1,0,0.2,0,0.4c0,0.4,0,0.9-0.1,1.6c-0.1,1.2-0.2,2.6-0.5,4.2
		c0.2-1.5,0.4-3,0.5-4.2c0-0.7,0.1-1.3,0.1-1.6C613.9,219.7,613.9,219.5,613.9,219.4 M623.3,225.3c0,0.6,0,1.3,0,2
		C623.3,226.6,623.3,225.9,623.3,225.3"/>
	<path class="st1" d="M612.3,230.2C612.3,230.2,612.3,230.2,612.3,230.2C612.3,230.2,612.3,230.2,612.3,230.2 M612.2,230.4
		C612.2,230.4,612.2,230.4,612.2,230.4C612.2,230.5,612.2,230.4,612.2,230.4 M612.2,230.5L612.2,230.5L612.2,230.5 M612.2,230.7
		C612.2,230.7,612.2,230.7,612.2,230.7C612.1,230.7,612.2,230.7,612.2,230.7 M612.1,230.8C612.1,230.8,612.1,230.8,612.1,230.8
		C612.1,230.8,612.1,230.8,612.1,230.8 M612.1,231C612.1,231,612.1,231,612.1,231C612.1,231,612.1,231,612.1,231"/>
	<path class="st8" d="M611.4,232.8C611.4,232.8,611.4,232.8,611.4,232.8c0,0.1-0.1,0.2-0.1,0.3C611.4,233,611.4,232.9,611.4,232.8
		C611.4,232.8,611.4,232.8,611.4,232.8"/>
	<path class="st9" d="M618.4,214.5c1.5,0,2.8,0.7,3.6,1.8c0,0,0,0,0,0l0,0c0.4,0.6,0.8,1.3,0.9,2.1c0,0,0,0.3,0.1,0.9
		c0,0.3,0.1,0.6,0.1,0.9c0,0.4,0.1,0.7,0.1,1.2c0.1,1.1,0.2,2.5,0.2,4c0,0.6,0,1.3,0,2c0,0.1,0,0.2,0,0.3c0,0.5-0.1,1.1-0.1,1.6
		c-3.1,2.9-7,3.9-11.2,3.9c-0.2,0-0.4,0-0.7,0c0-0.1,0.1-0.2,0.1-0.2c0,0,0,0,0,0c0.1-0.4,0.3-0.9,0.5-1.5c0,0,0-0.1,0-0.1
		c0-0.1,0-0.1,0.1-0.2c0,0,0,0,0,0c0,0,0-0.1,0-0.1c0,0,0,0,0,0c0,0,0,0,0-0.1c0,0,0,0,0-0.1c0-0.1,0-0.1,0-0.2l0,0c0,0,0-0.1,0-0.1
		c0,0,0,0,0,0c0-0.1,0-0.1,0.1-0.2c0,0,0,0,0-0.1c0,0,0-0.1,0-0.1c0.3-1.1,0.6-2.3,0.9-3.6c0.1-0.3,0.1-0.6,0.2-0.9
		c0.2-1.5,0.4-3,0.5-4.2c0-0.7,0.1-1.3,0.1-1.6c0-0.2,0-0.3,0-0.4c0-0.1,0-0.2,0-0.2V219c0,0,0,0,0,0c0-1.4,0.7-2.7,1.7-3.6
		C616.4,214.8,617.3,214.5,618.4,214.5L618.4,214.5"/>
	<path class="st6" d="M622.3,195.4l11.4,12.1c0,0-3.6,14.6-10.6,18.9c-7,4.3-11.6,2.5-16.4-1c-9.2-6.7,3.4-32.5,3.4-32.5
		L622.3,195.4L622.3,195.4z"/>
	<path class="st5" d="M636.2,194.9l0.8,19.6l-5.9,3.8c0,0-12.2-12.8-13.3-22.7c0,0-9,3.6-12.6,2.8l4.6-10.6L636.2,194.9L636.2,194.9
		z"/>
	<path class="st2" d="M612.4,229.9c0,0-3,6.5-0.2,10.4l-6.1,4.9C606.1,245.2,606.6,233.8,612.4,229.9"/>
	<path class="st2" d="M623.2,229.4l3.7,2.8c0,0,0.6,11.3-8.3,16.4l-2.6-6.6C616,242.1,622.2,241.4,623.2,229.4"/>
	<path class="st8" d="M540.8,230.1c23.2-13.2,52.8-5.1,66,18c13.2,23.2,5.2,52.6-18.1,65.8c-23.2,13.2-52.8,5.1-66-18
		C509.4,272.7,517.5,243.3,540.8,230.1"/>
	<path class="st6" d="M569.9,314.6c12.5-1.5,35.1-4.4,46.4-16.9c2.6,4.5,6.9,8.2,11.6,10.1c-4.5,4.2-9.9,7.5-17,10
		c-11.4,4-28.4,5.7-40.5,4.8C562.2,322,561,315.7,569.9,314.6"/>
	<path class="st10" d="M618.4,295c8.1-11.6,14.8-28.8,17.9-43.5c2.1-11.2,12.1-12.5,14.4-2.6c1.9,8.2-1.1,24.4-4.9,32.8
		c-5.2,11.7-11.6,23-21.1,30.1c-3.5,2.6-7.4,3.4-11.8,5.2c-1.7-4.2-3.5-8.4-5.4-12.4C611.9,302.1,615.7,299,618.4,295"/>
	<path class="st6" d="M544.5,308.9l12.6,2.7c0,0,0,0.6,2.7,0.9s0.2-2.4-2.9-4.9c-3.1-2.5-0.8-4-0.8-4s4.5,4,7,5
		c2.4,1,8.4,6.4,8.4,6.4l-0.5,7.3c-5.7,0.4-12.6-1.7-14.7-2.6c-1.3-0.5-3.9-3.2-5.5-4.8c-1.1-1.1-5.4-2.5-6-3.3
		C543.1,309.7,544.5,308.9,544.5,308.9"/>
	<path class="st6" d="M519.7,293.6l1.9-4.1c0.4-0.8,1.3-1.1,2.1-0.8c0.6,0.3,0.9,0.9,0.9,1.5c0.4-0.7,1.2-1,2-0.6
		c0.8,0.4,1.1,1.3,0.8,2.1l-2.1,4.6l0.1,0l1.3-2.8c0.4-0.8,1.3-1.1,2.1-0.8c0.8,0.4,1.1,1.3,0.8,2.1l-1.1,2.4
		c0.4-0.2,0.9-0.3,1.3-0.1l0.3,0.1c0.7,0.3,1,1.2,0.7,1.9l-1.2,2.5l4.2,7.2c0,0-3.1-0.6-5.9-2.7s-6.2-7.2-7-8
		C519.9,297.2,518.9,293.5,519.7,293.6"/>
	<path class="st2" d="M558.5,285.3c-0.3,0-0.6-0.2-0.8-0.4l-11.1-16c-0.3-0.4-0.1-0.9,0.4-1.1s1.1-0.1,1.4,0.3l10.4,14.9l24.2-24.4
		c0.3-0.3,1-0.4,1.4-0.1c0.4,0.3,0.5,0.8,0.2,1.2L559.4,285C559.2,285.2,558.9,285.3,558.5,285.3
		C558.6,285.3,558.5,285.3,558.5,285.3"/>
	<path class="st11" d="M558.5,285.3c-0.3,0-0.6-0.2-0.8-0.4l-11.1-16c-0.3-0.4-0.1-0.9,0.4-1.1s1.1-0.1,1.4,0.3l10.4,14.9l24.2-24.4
		c0.3-0.3,1-0.4,1.4-0.1c0.4,0.3,0.5,0.8,0.2,1.2L559.4,285C559.2,285.2,558.9,285.3,558.5,285.3
		C558.6,285.3,558.5,285.3,558.5,285.3L558.5,285.3z"/>
	<path class="st2" d="M288,73.3c-0.8-2.1-1.6-4-2.6-5.8c-3.3-6-7.5-9.6-11.8-10.4v16.1H288z M291.6,114.7c-0.9,2.8-2,5.4-3.3,7.7
		c-1.6,2.9-3.4,5.3-5.3,7.3c8.2-2.5,15.2-7.8,20-15L291.6,114.7L291.6,114.7z M304.9,76.7h-12.4c1.3,5,2.1,10.3,2.2,15.8h14.5
		C308.9,86.9,307.5,81.6,304.9,76.7 M294.7,95.9c-0.1,5.4-0.8,10.6-2.1,15.5h12.3c2.5-4.8,3.9-10,4.2-15.5L294.7,95.9L294.7,95.9z
		 M291.3,95.9h-17.8v15.5h15.6C290.5,106.5,291.2,101.3,291.3,95.9 M273.5,114.7v16.5c4.4-0.7,8.6-4.4,11.8-10.4
		c1-1.9,1.9-3.9,2.7-6.1H273.5L273.5,114.7z M288.3,65.9c1.2,2.2,2.3,4.7,3.2,7.4h11.4c-4.8-7.2-12-12.5-20.2-14.9
		C284.7,60.4,286.6,62.9,288.3,65.9 M273.5,76.7v15.8h17.8c-0.1-5.6-0.9-10.9-2.3-15.8H273.5z M260.7,129.6
		c-1.9-1.9-3.7-4.3-5.3-7.2c-1.3-2.3-2.4-4.9-3.3-7.7h-11.2C245.6,121.7,252.6,127,260.7,129.6 M255.6,114.7
		c0.8,2.2,1.7,4.3,2.7,6.1c3.2,5.9,7.4,9.6,11.8,10.4v-16.5L255.6,114.7L255.6,114.7z M252.2,73.3c0.9-2.7,2-5.2,3.2-7.4
		c1.6-3,3.5-5.5,5.6-7.5c-8.1,2.5-15.2,7.8-20,14.9H252.2z M270.2,76.7h-15.5c-1.4,4.9-2.2,10.2-2.3,15.8h17.8L270.2,76.7
		L270.2,76.7z M270.2,73.3V57.2c-4.4,0.7-8.6,4.4-11.8,10.4c-1,1.8-1.8,3.7-2.6,5.8H270.2L270.2,73.3z M270.2,111.3V95.9h-17.8
		c0.1,5.5,0.9,10.7,2.2,15.5L270.2,111.3L270.2,111.3z M234.7,92.5H249c0.1-5.6,0.9-10.9,2.2-15.8H239
		C236.4,81.6,235,86.9,234.7,92.5 M234.7,95.9c0.3,5.4,1.7,10.7,4.2,15.5h12.2c-1.3-4.9-2-10.1-2.1-15.5L234.7,95.9L234.7,95.9z
		 M243.2,65.4c7.7-7.7,17.9-11.9,28.7-11.9c10.8,0,21,4.2,28.7,11.9s11.9,17.9,11.9,28.7s-4.2,21-11.9,28.7
		c-7.7,7.7-17.9,11.9-28.7,11.9c-10.8,0-21-4.2-28.7-11.9c-7.7-7.7-11.9-17.9-11.9-28.7S235.6,73.1,243.2,65.4"/>
	<path class="st0" d="M134.8,499.6c-41.2,0-74.7,8.7-74.7,19.4c0,10.7,33.4,19.4,74.7,19.4s74.7-8.7,74.7-19.4
		C209.4,508.3,176,499.6,134.8,499.6"/>
	<path class="st12" d="M225.2,241.3c1.6,2.5,4.8,3.1,8.7,1.8c2.6-0.8,3-3.3,8-7.8l-8.5-10.1c0,0-5.1,3-7.7,7.7
		C223.9,235.9,224.2,239.8,225.2,241.3"/>
	<path class="st12" d="M238.7,235.9l2.7-4.7l2.1,1.9L238.7,235.9c-0.6,0.3-1.5,0.1-1.8-0.6c-0.4-0.6-0.2-1.4,0.4-1.8l4.6-3
		c0.7-0.4,1.6-0.2,2,0.4c0.3,0.4,0.3,1,0.1,1.4l0,0.1l-2.3,4.9c-0.4,0.8-1.4,1.2-2.2,0.8c-0.8-0.4-1.2-1.4-0.8-2.2
		C238.6,236,238.7,235.9,238.7,235.9"/>
	<path class="st12" d="M234.9,231.3c0,0,0.1-0.1,0.3-0.2c0.2-0.1,0.4-0.3,0.7-0.5c0.6-0.4,1.3-0.8,2.1-1.3c1.5-0.9,3.1-1.7,3.1-1.7
		l0,0c0.7-0.4,1.5-0.1,1.8,0.6c0.3,0.6,0.1,1.3-0.4,1.7c0,0-1.3,1.1-2.6,2.2c-0.6,0.6-1.3,1.1-1.7,1.6c-0.2,0.2-0.4,0.4-0.5,0.5
		c-0.1,0.1-0.2,0.2-0.2,0.2c-0.8,0.8-2,0.8-2.9,0.1c-0.8-0.8-0.8-2-0.1-2.9C234.7,231.5,234.8,231.4,234.9,231.3"/>
	<path class="st12" d="M232.1,228.8c0,0,0,0,0.1-0.1c0.1,0,0.1-0.1,0.3-0.2c0.2-0.1,0.5-0.3,0.8-0.5c0.7-0.4,1.6-0.8,2.4-1.3
		c1.8-0.9,3.6-1.6,3.6-1.6h0c0.8-0.3,1.7,0.1,2,0.8c0.3,0.7,0,1.5-0.7,1.9c0,0-1.6,0.9-3.2,1.9c-0.8,0.5-1.5,1-2,1.4
		c-0.3,0.2-0.5,0.4-0.6,0.5c-0.1,0.1-0.1,0.1-0.1,0.1l0,0c-0.8,0.8-2,0.9-2.9,0.1s-0.9-2-0.1-2.9c0.1-0.1,0.2-0.2,0.3-0.2
		L232.1,228.8L232.1,228.8z"/>
	<path class="st12" d="M227,231c0,0,0.1-0.1,0.2-0.2c0.1-0.2,0.3-0.3,0.4-0.5c0.4-0.4,0.9-1,1.6-1.7c0.7-0.7,1.5-1.4,2.3-2.1
		c0.4-0.4,0.9-0.7,1.4-1.1c0.5-0.4,1-0.7,1.5-1.1c0.5-0.4,1-0.7,1.5-1c0.5-0.3,1-0.7,1.5-1c1-0.6,1.8-1.2,2.6-1.6
		c0.8-0.5,1.4-0.8,1.9-1.1c0.5-0.3,0.7-0.4,0.7-0.4c0.7-0.4,1.5-0.1,1.9,0.5c0.4,0.6,0.1,1.4-0.5,1.8l0,0c0,0-0.2,0.2-0.7,0.4
		c-0.4,0.3-1.1,0.6-1.8,1.1c-0.7,0.5-1.6,1-2.4,1.7c-0.4,0.3-0.9,0.7-1.3,1s-0.9,0.7-1.4,1.1c-0.5,0.4-0.9,0.7-1.3,1.1
		c-0.4,0.4-0.8,0.7-1.2,1.1c-0.8,0.7-1.5,1.4-2,2c-0.6,0.6-1,1.1-1.3,1.5c-0.1,0.2-0.2,0.3-0.3,0.4c-0.1,0.1-0.1,0.1-0.1,0.1l0,0
		c-0.6,0.9-1.7,1.1-2.6,0.5C226.5,233,226.3,231.9,227,231C226.9,231,226.9,231,227,231"/>
	<path class="st8" d="M109,233.9c-14.2-9.1-24,15.3-29.2,24.3c-5.1,8.8-17.9,36.9-11.5,41.6c8.5,6.2,26.4,0.5,35.5-2.2
		c2.7-0.8,6-1.4,7.2-4.4c1-2.7-0.4-5.9-3.2-6.9c-2.6-0.9-6.1,0.1-8.7,0.3c-4.4,0.3-8.8,0.4-13.2-0.1c6.2-10.9,14.4-20.9,22.3-30.6
		c2.3-2.8,5.2-5.6,6-9.3C115.2,241.7,113.1,236.5,109,233.9C103.4,230.3,114.5,237.4,109,233.9"/>
	<path class="st7" d="M109,233.9c0.5,0.3,0.9,0.6,1.3,0.8C110,234.5,109.6,234.3,109,233.9c-0.5-0.3-0.8-0.5-1.1-0.7
		C108.2,233.3,108.6,233.6,109,233.9c-4.2-2.7-8.1-2.5-11.5-0.5c4.1,7.6,0.6,17.1-6.3,21.7c-0.5,0.5-1.1,1-1.6,1.5
		c-0.5,0.6-0.7,17.5-0.2,24c5.6-8.6,12.2-16.8,18.7-24.7c2.3-2.8,5.2-5.6,6-9.2C115.2,241.7,113.1,236.5,109,233.9"/>
	<path class="st12" d="M115.2,219.4c0,0-12.2-26.1-5.7-32.5c5.1-5,28.3,1.3,28.3,1.3s6.3,37.7-6.5,37
		C120.1,224.6,115.2,219.4,115.2,219.4"/>
	<path class="st12" d="M128.7,217.3c0.3,4.8,2.2,12.7-0.7,17c-3.7,5.6-20.4,3.2-17.3-2.6c3.5-6.4,3.2-11.5,4.8-15.8
		C117.8,210.4,128.5,210,128.7,217.3"/>
	<path class="st5" d="M142.7,183.1c0,0,1.3,9.3-4.2,10.6c-4.3,1-6.1,8-6.1,8s-7.3,5.6-5.5,7.7c1.8,2-3.7,11.5-3.7,11.5
		s-8.1,1.3-8.8-0.1c-8.1-17-9.7-23.1-8.8-27.3c1.7-7.2,5.7-11.7,11.1-12.8C131.4,177.5,137.2,183.6,142.7,183.1"/>
	<path class="st5" d="M150.6,344.4c3.7,28.2,8.8,60.5,10.1,88.9c0.6,12.7,0,64.9-0.7,79c-0.3,5.2-5.3,7.7-10.5,3.9
		c-3.7-2.7-2.1,0.1-2.6-3.9c-1.8-15.8-6-36.2-7.4-52.1c-3-33.8-7.5-51.1-18.6-85c-2.5-7.8-2.3-14.4-4.6-22.3
		c-1.6-5.6-1.4-11.3,2.1-16.3C127.5,323.5,148.4,328.7,150.6,344.4"/>
	<path class="st5" d="M126,349.7c-4.8,26.8-5.1,58.9-10.9,85.5c-4.7,22-15.7,57.2-19.2,80c-0.8,5.1-11.9,1.2-11.6-3.9
		c1.3-22.9,2-57.5,6.2-81.2c2-11.1-0.9-53.7,0-76.7c0.4-10.4,1.8-21,14-23.9C116.7,326.5,128.1,337.4,126,349.7"/>
	<path class="st5" d="M146.4,510.7c-3.8,13.7,0,13.6,0,13.6l40.2,0c0,0,1.6-6-7.4-6.8c-5.8-0.5-19.3-6.8-19.3-6.8L146.4,510.7
		L146.4,510.7z"/>
	<path class="st5" d="M83.8,510.8c-4,10.6,0,13.6,0,13.6l27.6,0.1c0,0,1.7-6.6-7.4-6.8c-1.6,0-7.7-6.9-7.7-6.9L83.8,510.8
		L83.8,510.8z"/>
	<path class="st8" d="M90.9,272.1c0.5,5,3.7,17.5,2.5,48.7c-0.2,6.4-1.4,14.4-3,24.5c0,0,19.3,2.7,32,2.6c12.3-0.1,28.5-1,28.5-1
		s-4-26.2,0.2-67.7c1.6-15.5,10.6-46.9-31.8-50.6C83.4,225.6,89.3,255.4,90.9,272.1"/>
	<path class="st8" d="M136.2,232.7c17.9,6.9,45.1,14.6,46.9,14.9c4.9,0.9,27.1-8.3,40.3-12.3c6.3-2,7.8,7,6.3,7.9
		c-25.7,14.6-37.7,21.6-48,21.6c-17.5,0-33.3-3-43.5-5.6c-5.6-1.5-10.7-4.3-11.4-10.5C125.8,240.3,128.2,230.5,136.2,232.7"/>
	<path class="st12" d="M131,202.7c0,0-3.6-3.8-5-1.8c-1.4,1.9-1.9,10.2,2.3,9.2C132.5,209.1,131,202.7,131,202.7"/>
</g>
</svg>
