<svg width="500" height="500" viewBox="0 0 500 500" fill="none" xmlns="http://www.w3.org/2000/svg">
<rect width="500" height="500" fill="white"/>
<path d="M155.657 425.366L149.553 405.333H152.788L157.118 420.671H157.326L161.604 405.333H164.891L169.116 420.619H169.325L173.655 405.333H176.889L170.786 425.366H167.76L163.378 409.976H163.065L158.683 425.366H155.657ZM185.497 425.366L179.393 405.333H182.628L186.958 420.671H187.167L191.444 405.333H194.731L198.957 420.619H199.165L203.495 405.333H206.73L200.626 425.366H197.6L193.218 409.976H192.905L188.523 425.366H185.497ZM215.338 425.366L209.234 405.333H212.468L216.798 420.671H217.007L221.285 405.333H224.571L228.797 420.619H229.006L233.336 405.333H236.57L230.467 425.366H227.441L223.059 409.976H222.746L218.363 425.366H215.338ZM240.157 425.575C239.513 425.575 238.961 425.344 238.5 424.884C238.04 424.423 237.809 423.871 237.809 423.227C237.809 422.584 238.04 422.032 238.5 421.571C238.961 421.11 239.513 420.88 240.157 420.88C240.8 420.88 241.352 421.11 241.813 421.571C242.274 422.032 242.504 422.584 242.504 423.227C242.504 423.653 242.396 424.045 242.178 424.401C241.97 424.758 241.687 425.045 241.331 425.262C240.983 425.471 240.592 425.575 240.157 425.575ZM250.01 432.878C249.488 432.878 249.023 432.835 248.615 432.748C248.206 432.67 247.923 432.592 247.767 432.513L248.549 429.801C249.297 429.992 249.958 430.061 250.532 430.009C251.106 429.957 251.614 429.701 252.058 429.24C252.51 428.788 252.923 428.053 253.297 427.036L253.871 425.471L246.463 405.333H249.801L255.331 421.297H255.54L261.07 405.333H264.409L255.905 428.288C255.523 429.322 255.049 430.179 254.484 430.857C253.918 431.544 253.262 432.052 252.514 432.383C251.775 432.713 250.941 432.878 250.01 432.878ZM275.892 425.784C274.084 425.784 272.497 425.353 271.132 424.492C269.776 423.632 268.715 422.427 267.95 420.88C267.193 419.332 266.815 417.524 266.815 415.454C266.815 413.367 267.193 411.546 267.95 409.99C268.715 408.433 269.776 407.225 271.132 406.364C272.497 405.503 274.084 405.073 275.892 405.073C277.701 405.073 279.283 405.503 280.64 406.364C282.005 407.225 283.065 408.433 283.822 409.99C284.587 411.546 284.97 413.367 284.97 415.454C284.97 417.524 284.587 419.332 283.822 420.88C283.065 422.427 282.005 423.632 280.64 424.492C279.283 425.353 277.701 425.784 275.892 425.784ZM275.892 423.019C277.266 423.019 278.396 422.666 279.283 421.962C280.17 421.258 280.827 420.332 281.253 419.184C281.679 418.037 281.892 416.793 281.892 415.454C281.892 414.115 281.679 412.867 281.253 411.711C280.827 410.555 280.17 409.62 279.283 408.907C278.396 408.194 277.266 407.838 275.892 407.838C274.519 407.838 273.388 408.194 272.501 408.907C271.614 409.62 270.958 410.555 270.532 411.711C270.106 412.867 269.893 414.115 269.893 415.454C269.893 416.793 270.106 418.037 270.532 419.184C270.958 420.332 271.614 421.258 272.501 421.962C273.388 422.666 274.519 423.019 275.892 423.019ZM302.293 417.176V405.333H305.371V425.366H302.293V421.975H302.084C301.615 422.993 300.884 423.858 299.893 424.571C298.902 425.275 297.65 425.627 296.137 425.627C294.885 425.627 293.772 425.353 292.798 424.805C291.824 424.249 291.059 423.414 290.503 422.301C289.946 421.18 289.668 419.767 289.668 418.063V405.333H292.746V417.854C292.746 419.315 293.155 420.48 293.972 421.349C294.798 422.219 295.85 422.653 297.128 422.653C297.893 422.653 298.671 422.458 299.463 422.067C300.263 421.675 300.932 421.075 301.471 420.267C302.019 419.458 302.293 418.428 302.293 417.176ZM311.008 425.366V405.333H313.982V408.359H314.191C314.556 407.368 315.217 406.564 316.173 405.946C317.129 405.329 318.208 405.02 319.407 405.02C319.633 405.02 319.916 405.025 320.255 405.034C320.594 405.042 320.851 405.055 321.025 405.073V408.203C320.92 408.177 320.681 408.138 320.307 408.085C319.942 408.025 319.555 407.994 319.147 407.994C318.173 407.994 317.303 408.198 316.538 408.607C315.782 409.007 315.182 409.563 314.738 410.276C314.304 410.981 314.086 411.785 314.086 412.689V425.366H311.008ZM327.751 413.315V425.366H324.673V405.333H327.647V408.464H327.908C328.377 407.446 329.09 406.629 330.047 406.012C331.003 405.386 332.238 405.073 333.75 405.073C335.107 405.073 336.294 405.351 337.311 405.907C338.328 406.455 339.12 407.29 339.685 408.411C340.25 409.524 340.532 410.933 340.532 412.637V425.366H337.454V412.846C337.454 411.272 337.046 410.046 336.229 409.168C335.411 408.281 334.29 407.838 332.864 407.838C331.881 407.838 331.003 408.051 330.229 408.477C329.464 408.903 328.86 409.524 328.416 410.342C327.973 411.159 327.751 412.15 327.751 413.315ZM352.052 425.836C350.782 425.836 349.63 425.597 348.596 425.118C347.561 424.632 346.739 423.932 346.131 423.019C345.522 422.097 345.218 420.984 345.218 419.68C345.218 418.532 345.444 417.602 345.896 416.889C346.348 416.167 346.952 415.602 347.709 415.193C348.465 414.785 349.3 414.48 350.213 414.28C351.135 414.072 352.061 413.907 352.991 413.785C354.208 413.628 355.195 413.511 355.951 413.433C356.717 413.346 357.273 413.202 357.621 413.002C357.977 412.802 358.156 412.454 358.156 411.959V411.855C358.156 410.568 357.803 409.568 357.099 408.855C356.404 408.142 355.347 407.785 353.93 407.785C352.461 407.785 351.308 408.107 350.474 408.751C349.639 409.394 349.052 410.081 348.713 410.811L345.792 409.768C346.313 408.551 347.009 407.603 347.878 406.925C348.757 406.238 349.713 405.76 350.748 405.49C351.791 405.212 352.817 405.073 353.826 405.073C354.469 405.073 355.208 405.151 356.043 405.307C356.886 405.455 357.699 405.764 358.482 406.233C359.273 406.703 359.929 407.412 360.451 408.359C360.973 409.307 361.234 410.576 361.234 412.168V425.366H358.156V422.653H357.999C357.79 423.088 357.443 423.553 356.956 424.049C356.469 424.545 355.821 424.966 355.012 425.314C354.204 425.662 353.217 425.836 352.052 425.836ZM352.521 423.071C353.739 423.071 354.765 422.832 355.599 422.353C356.443 421.875 357.077 421.258 357.503 420.501C357.938 419.745 358.156 418.949 358.156 418.115V415.298C358.025 415.454 357.738 415.598 357.295 415.728C356.86 415.85 356.356 415.958 355.782 416.054C355.217 416.141 354.665 416.219 354.126 416.289C353.595 416.35 353.165 416.402 352.834 416.445C352.034 416.55 351.287 416.719 350.591 416.954C349.904 417.18 349.348 417.524 348.922 417.984C348.504 418.436 348.296 419.054 348.296 419.836C348.296 420.906 348.691 421.714 349.483 422.262C350.282 422.801 351.295 423.071 352.521 423.071ZM151.118 469.366V449.333H154.092V452.464H154.353C154.77 451.394 155.444 450.564 156.374 449.973C157.304 449.373 158.422 449.073 159.726 449.073C161.048 449.073 162.147 449.373 163.026 449.973C163.912 450.564 164.604 451.394 165.099 452.464H165.308C165.821 451.429 166.59 450.607 167.616 449.999C168.642 449.381 169.873 449.073 171.307 449.073C173.098 449.073 174.564 449.633 175.703 450.755C176.842 451.868 177.411 453.603 177.411 455.959V469.366H174.333V455.959C174.333 454.481 173.929 453.424 173.12 452.79C172.312 452.155 171.36 451.838 170.264 451.838C168.855 451.838 167.764 452.264 166.99 453.116C166.217 453.959 165.83 455.029 165.83 456.324V469.366H162.7V455.646C162.7 454.507 162.33 453.59 161.591 452.894C160.852 452.19 159.9 451.838 158.735 451.838C157.935 451.838 157.187 452.051 156.491 452.477C155.805 452.903 155.248 453.494 154.822 454.25C154.405 454.998 154.196 455.863 154.196 456.846V469.366H151.118ZM191.438 469.784C189.508 469.784 187.843 469.358 186.443 468.505C185.052 467.645 183.978 466.445 183.221 464.906C182.474 463.358 182.1 461.558 182.1 459.506C182.1 457.454 182.474 455.646 183.221 454.081C183.978 452.507 185.03 451.281 186.378 450.403C187.734 449.516 189.316 449.073 191.125 449.073C192.168 449.073 193.199 449.247 194.216 449.594C195.233 449.942 196.159 450.507 196.994 451.29C197.829 452.064 198.494 453.09 198.989 454.368C199.485 455.646 199.733 457.22 199.733 459.089V460.393H184.291V457.733H196.603C196.603 456.602 196.377 455.594 195.924 454.707C195.481 453.82 194.846 453.12 194.02 452.607C193.203 452.094 192.238 451.838 191.125 451.838C189.899 451.838 188.838 452.142 187.943 452.751C187.056 453.35 186.373 454.133 185.895 455.098C185.417 456.063 185.178 457.098 185.178 458.202V459.976C185.178 461.489 185.439 462.771 185.96 463.823C186.491 464.867 187.225 465.662 188.164 466.21C189.103 466.749 190.195 467.019 191.438 467.019C192.247 467.019 192.977 466.906 193.629 466.68C194.29 466.445 194.859 466.097 195.338 465.636C195.816 465.167 196.185 464.584 196.446 463.889L199.42 464.723C199.107 465.732 198.581 466.619 197.842 467.384C197.103 468.14 196.19 468.731 195.103 469.158C194.016 469.575 192.794 469.784 191.438 469.784ZM206.658 469.575C206.015 469.575 205.463 469.344 205.002 468.884C204.541 468.423 204.311 467.871 204.311 467.227C204.311 466.584 204.541 466.032 205.002 465.571C205.463 465.11 206.015 464.88 206.658 464.88C207.301 464.88 207.854 465.11 208.314 465.571C208.775 466.032 209.006 466.584 209.006 467.227C209.006 467.653 208.897 468.045 208.68 468.401C208.471 468.758 208.188 469.045 207.832 469.262C207.484 469.471 207.093 469.575 206.658 469.575ZM222.667 469.784C220.789 469.784 219.172 469.34 217.816 468.453C216.459 467.566 215.416 466.345 214.686 464.788C213.955 463.232 213.59 461.454 213.59 459.454C213.59 457.42 213.964 455.624 214.712 454.068C215.468 452.503 216.52 451.281 217.868 450.403C219.224 449.516 220.807 449.073 222.615 449.073C224.024 449.073 225.293 449.333 226.423 449.855C227.554 450.377 228.48 451.107 229.201 452.046C229.923 452.985 230.371 454.081 230.545 455.333H227.467C227.232 454.42 226.71 453.611 225.902 452.907C225.102 452.194 224.024 451.838 222.667 451.838C221.467 451.838 220.415 452.151 219.511 452.777C218.616 453.394 217.916 454.268 217.411 455.398C216.916 456.52 216.668 457.837 216.668 459.35C216.668 460.898 216.911 462.245 217.398 463.393C217.894 464.541 218.589 465.432 219.485 466.067C220.389 466.701 221.45 467.019 222.667 467.019C223.467 467.019 224.193 466.88 224.845 466.601C225.497 466.323 226.05 465.923 226.502 465.401C226.954 464.88 227.276 464.254 227.467 463.523H230.545C230.371 464.706 229.94 465.771 229.254 466.719C228.575 467.658 227.675 468.405 226.554 468.962C225.441 469.51 224.145 469.784 222.667 469.784ZM243.183 469.784C241.374 469.784 239.787 469.353 238.422 468.492C237.066 467.632 236.005 466.427 235.24 464.88C234.483 463.332 234.105 461.524 234.105 459.454C234.105 457.367 234.483 455.546 235.24 453.99C236.005 452.433 237.066 451.225 238.422 450.364C239.787 449.503 241.374 449.073 243.183 449.073C244.991 449.073 246.574 449.503 247.93 450.364C249.295 451.225 250.356 452.433 251.112 453.99C251.877 455.546 252.26 457.367 252.26 459.454C252.26 461.524 251.877 463.332 251.112 464.88C250.356 466.427 249.295 467.632 247.93 468.492C246.574 469.353 244.991 469.784 243.183 469.784ZM243.183 467.019C244.556 467.019 245.687 466.666 246.574 465.962C247.46 465.258 248.117 464.332 248.543 463.184C248.969 462.037 249.182 460.793 249.182 459.454C249.182 458.115 248.969 456.867 248.543 455.711C248.117 454.555 247.46 453.62 246.574 452.907C245.687 452.194 244.556 451.838 243.183 451.838C241.809 451.838 240.679 452.194 239.792 452.907C238.905 453.62 238.248 454.555 237.822 455.711C237.396 456.867 237.183 458.115 237.183 459.454C237.183 460.793 237.396 462.037 237.822 463.184C238.248 464.332 238.905 465.258 239.792 465.962C240.679 466.666 241.809 467.019 243.183 467.019ZM256.958 469.366V449.333H259.932V452.464H260.193C260.61 451.394 261.284 450.564 262.214 449.973C263.145 449.373 264.262 449.073 265.566 449.073C266.888 449.073 267.988 449.373 268.866 449.973C269.753 450.564 270.444 451.394 270.94 452.464H271.148C271.661 451.429 272.431 450.607 273.457 449.999C274.483 449.381 275.713 449.073 277.148 449.073C278.939 449.073 280.404 449.633 281.543 450.755C282.682 451.868 283.251 453.603 283.251 455.959V469.366H280.173V455.959C280.173 454.481 279.769 453.424 278.96 452.79C278.152 452.155 277.2 451.838 276.104 451.838C274.696 451.838 273.604 452.264 272.831 453.116C272.057 453.959 271.67 455.029 271.67 456.324V469.366H268.54V455.646C268.54 454.507 268.17 453.59 267.431 452.894C266.692 452.19 265.74 451.838 264.575 451.838C263.775 451.838 263.027 452.051 262.332 452.477C261.645 452.903 261.088 453.494 260.662 454.25C260.245 454.998 260.036 455.863 260.036 456.846V469.366H256.958Z" fill="white"/>
<path d="M331.368 378.733C410.568 284.333 413.368 90.9998 399.468 87.2664C385.568 83.5331 220.735 185.133 263.468 378.633C263.868 380.5 331.368 378.733 331.368 378.733Z" fill="#6997E8"/>
<path d="M292.401 379.766L290.734 379.6C305.501 246.266 390.001 101.833 390.734 100.4L392.201 101.233C391.434 102.666 307.101 246.966 292.401 379.766Z" fill="#3974C9"/>
<path d="M356.201 183.467C354.634 183.467 352.867 183.467 351.301 183.467V181.8C380.201 183.467 389.267 169.2 389.367 169.067L390.801 169.933C390.534 170.4 382.267 183.467 356.201 183.467Z" fill="#3974C9"/>
<path d="M330.234 232.234C324.706 229.992 319.868 226.33 316.21 221.618C312.552 216.906 310.203 211.311 309.401 205.4C308.452 199.527 308.576 193.529 309.768 187.7L311.401 188.067C311.401 188.4 304.268 219.334 330.868 230.7L330.234 232.234Z" fill="#3974C9"/>
<path d="M309.434 295.2V293.533C359.434 292.866 368.201 266.066 368.301 265.8L369.9 266.266C367.66 271.95 363.901 276.908 359.034 280.6C351.134 287.066 336.167 294.833 309.434 295.2Z" fill="#3974C9"/>
<path d="M301.067 326.2C265.967 316.2 269.767 281.866 269.8 281.5L271.467 281.7C270.427 291.27 272.895 300.893 278.412 308.782C283.929 316.672 292.121 322.292 301.467 324.6L301.067 326.2Z" fill="#3974C9"/>
<path d="M164.733 375C103.366 301.933 89.9662 141.2 99.5662 137.133C109.166 133.067 233.6 207.567 211.933 375H164.733Z" fill="#6997E8"/>
<path d="M192.267 375.067C174.067 265.533 105.9 149.433 105.2 148.4L106.634 147.567C107.334 148.733 175.634 265.067 193.9 374.9L192.267 375.067Z" fill="#3974C9"/>
<path d="M131.466 214.533C116.166 214.533 110.5 205.7 110.233 205.267L111.666 204.4C111.933 204.833 118.933 215.6 138.933 212.233L139.2 213.867C136.645 214.302 134.058 214.525 131.466 214.533Z" fill="#3974C9"/>
<path d="M157.034 253.066L156.167 251.633C174.134 240.366 167.367 215.166 167.301 214.966L168.901 214.533C168.967 214.733 176.101 241.133 157.034 253.066Z" fill="#3974C9"/>
<path d="M168.801 304.334C137.934 304.334 130.801 284.334 130.734 284.1L132.334 283.567C132.334 283.767 140.101 305.3 175.134 302.4V304.067C173.001 304.267 170.834 304.334 168.801 304.334Z" fill="#3974C9"/>
<path d="M183.101 329.3L182.401 327.766C205.468 317.4 201.001 290.333 200.934 290.066L202.568 289.766C202.634 290.066 207.334 318.4 183.101 329.3Z" fill="#3974C9"/>
<path d="M397.5 378.367C446.2 330.033 480.067 244.8 474.867 240.367C468.967 235.367 366.767 259.767 341.034 378.367H397.5Z" fill="#6997E8"/>
<path d="M360.8 378.567L359.367 377.767C399.134 307.767 466.567 246.667 467.234 246.067L468.367 247.3C467.7 247.9 400.434 308.767 360.8 378.567Z" fill="#3974C9"/>
<path d="M441.5 290.7C436.986 290.623 432.555 289.481 428.566 287.367L429.3 285.867C443 292.867 450.566 286.5 450.633 286.433L451.733 287.7C448.749 289.807 445.149 290.863 441.5 290.7Z" fill="#3974C9"/>
<path d="M406.633 311.466C395.433 298.366 406.633 280.733 406.633 280.533L408.033 281.433C408.033 281.6 397.367 298.1 407.733 310.366L406.633 311.466Z" fill="#3974C9"/>
<path d="M399.234 348.133C393.254 348.022 387.355 346.743 381.867 344.366L382.5 342.833C407.1 352.833 417.2 339.5 417.6 338.966L418.967 339.933C416.499 342.686 413.445 344.852 410.03 346.271C406.615 347.69 402.926 348.326 399.234 348.133V348.133Z" fill="#3974C9"/>
<path d="M370.4 360.7C355.2 347.166 365.134 327.566 365.234 327.366L366.7 328.133C366.334 328.9 357.267 346.8 371.534 359.466L370.4 360.7Z" fill="#3974C9"/>
<path d="M84.3344 378.366C45.3677 339.7 18.2677 271.466 22.4343 267.933C27.1343 263.9 108.934 283.433 129.534 378.366H84.3344Z" fill="#6997E8"/>
<path d="M113.567 378.6C81.8669 322.766 28.0669 274.066 27.5002 273.6L28.6336 272.366C29.1669 272.833 83.1669 321.7 115 377.8L113.567 378.6Z" fill="#3974C9"/>
<path d="M49.1002 308.333C46.1334 308.439 43.2186 307.534 40.8335 305.767L41.9002 304.5C42.1669 304.7 48.0335 309.533 58.8002 304.033L59.5668 305.5C56.357 307.274 52.7664 308.245 49.1002 308.333V308.333Z" fill="#3974C9"/>
<path d="M77.1667 324.933L75.9 323.833C84.1 314.233 75.7333 301.033 75.6333 300.9L77.0333 299.967C77.1333 300.133 86.2 314.367 77.1667 324.933Z" fill="#3974C9"/>
<path d="M82.9663 354.333C79.9811 354.483 77.0002 353.962 74.2428 352.809C71.4855 351.655 69.0218 349.898 67.033 347.667L68.3663 346.7C68.6996 347.133 76.7663 357.7 96.2663 349.733L96.8996 351.267C92.5007 353.191 87.7667 354.233 82.9663 354.333V354.333Z" fill="#3974C9"/>
<path d="M106.134 364.467L105 363.2C116.334 353.2 108.9 338.5 108.834 338.367L110.3 337.6C110.3 337.6 118.367 353.567 106.134 364.467Z" fill="#3974C9"/>
<path d="M277.401 255.2L319.734 355.733C334.868 385.733 381.501 371.833 373.068 333.3C373.068 333.3 358.001 246.3 314.201 216.633C289.834 201.2 259.168 222.8 277.401 255.2Z" fill="white"/>
<path d="M201.201 255.2L158.868 355.733C143.734 385.733 97.1344 371.833 105.534 333.3C105.534 333.3 120.601 246.3 164.401 216.633C188.768 201.2 219.434 222.8 201.201 255.2Z" fill="white"/>
<path d="M262.133 166.933H216.333V229.6H262.133V166.933Z" fill="#EDA694"/>
<path d="M262.1 201.5C254.541 204.967 246.102 206.033 237.918 204.555C229.735 203.077 222.202 199.125 216.333 193.233V170.167H262.1V201.5Z" fill="#D17A69"/>
<path d="M164.367 378.633H314.134C312.4 365 323.934 235.7 316.6 223.5C306.9 205.8 260.867 206.333 260.867 206.333C246.7 216.333 230.2 216.1 217.534 206.333C217.534 206.333 171.533 205.8 161.867 223.5C154.567 235.7 166.1 365 164.367 378.633Z" fill="#DE5D6E"/>
<path d="M321.068 223.5C311.801 207.5 271.068 206.4 263.368 206.333V378.633H318.368C316.634 365 328.834 235.7 321.068 223.5Z" fill="white"/>
<path d="M214.534 378.633V206.333C205.734 206.333 166.501 207.8 157.434 223.5C149.667 235.7 161.867 365 160.034 378.633H214.534Z" fill="white"/>
<path d="M282.901 139.067C285.401 125.733 280.134 120.367 280.134 120.367C280.134 120.367 281.834 83.3333 239.167 83.3333C196.501 83.3333 198.101 119 198.101 119C198.101 119 191.434 124.3 194.367 139C194.367 139.767 194.367 140.567 194.367 141.333C194.314 151.409 196.765 161.34 201.501 170.233C208.934 185.1 222.134 194.967 238.167 194.967H239.501C255.434 194.967 268.601 184.967 276.167 170.233C280.903 161.34 283.354 151.409 283.301 141.333C283.001 140.7 282.934 139.833 282.901 139.067Z" fill="#2E3C5B"/>
<path d="M203.1 145.267C201.865 144.682 200.52 144.364 199.154 144.335C197.788 144.306 196.431 144.566 195.172 145.097C193.913 145.629 192.781 146.421 191.849 147.421C190.918 148.421 190.208 149.607 189.767 150.9C185.933 160.9 193.967 171.433 206.067 170.5C218.167 169.567 203.1 145.267 203.1 145.267Z" fill="#EDA694"/>
<path d="M274.533 145.267C274.533 145.267 284.866 140.967 288.733 150.9C292.6 160.833 284.533 171.433 272.433 170.5C260.333 169.567 274.533 145.267 274.533 145.267Z" fill="#EDA694"/>
<path d="M275.034 134.933C274.834 120.533 269.568 111.867 261.234 106.7C254.581 102.597 246.918 100.424 239.101 100.424C231.284 100.424 223.621 102.597 216.968 106.7C208.634 111.867 202.234 120.533 202.001 134.933C201.801 148.733 200.868 157.6 204.068 170.567C208.368 188.1 225.201 201.267 239.101 201.267C253.001 201.267 269.834 188.1 274.134 170.567C277.434 157.6 275.368 148.733 275.034 134.933Z" fill="#EDA694"/>
<path d="M198.368 164.3C197.123 163.656 196.031 162.751 195.168 161.646C194.305 160.542 193.691 159.264 193.368 157.9C193.183 156.818 193.214 155.71 193.46 154.64C193.706 153.57 194.162 152.559 194.801 151.667L196.134 152.667C195.123 154.098 194.716 155.871 195.001 157.6C195.295 158.736 195.828 159.795 196.564 160.709C197.299 161.623 198.221 162.37 199.268 162.9L198.368 164.3Z" fill="#D17A68"/>
<path d="M195.3 160.199L194.3 158.866C195.228 158.209 196.318 157.818 197.452 157.736C198.586 157.654 199.721 157.883 200.734 158.399L199.967 159.866C199.23 159.499 198.409 159.337 197.588 159.395C196.767 159.454 195.977 159.732 195.3 160.199V160.199Z" fill="#D17A68"/>
<path d="M280.566 164.3L279.667 162.9C280.712 162.363 281.634 161.615 282.374 160.702C283.114 159.79 283.657 158.733 283.966 157.6C284.211 155.872 283.807 154.115 282.833 152.667L284.166 151.667C285.425 153.484 285.938 155.715 285.6 157.9C285.257 159.26 284.631 160.533 283.764 161.635C282.897 162.738 281.807 163.646 280.566 164.3V164.3Z" fill="#D17A68"/>
<path d="M283.667 160.199C282.991 159.732 282.2 159.454 281.38 159.395C280.559 159.337 279.737 159.499 279.001 159.866L278.234 158.399C279.247 157.883 280.382 157.654 281.516 157.736C282.65 157.818 283.74 158.209 284.668 158.866L283.667 160.199L284.167 159.533L283.667 160.199Z" fill="#D17A68"/>
<path d="M204.167 170.7L202.934 164.833L202 170.533C202.934 170.7 203.734 170.7 204.167 170.7Z" fill="#D17A69"/>
<path d="M274.234 170.7L275.467 164.833L276.4 170.533C275.467 170.7 274.667 170.7 274.234 170.7Z" fill="#D17A69"/>
<path d="M274.167 111.967L261.4 99.0999L248.067 92.4332H229.2L215.867 99.0999L203.1 111.967L198.9 125.6L201.867 139.133C201.867 139.133 201.867 122.633 206.767 117.833C210.8 113.833 218.633 121.167 238.667 121.167C258.7 121.167 266.533 113.867 270.567 117.833C275.333 122.633 275.467 139.133 275.467 139.133L278.433 125.6L274.167 111.967Z" fill="#2E3C5B"/>
<path d="M251.366 169C241.6 177.6 232.5 174.7 226.133 169C234.535 168.45 242.964 168.45 251.366 169V169Z" fill="white"/>
<path d="M236.001 165.833V164.167C238.335 164.167 243.335 163.033 243.801 161.133C244.068 160.067 242.934 158.067 241.768 155.967C239.591 152.702 238.273 148.942 237.935 145.033H239.601C239.969 148.615 241.217 152.051 243.234 155.033C244.668 157.633 245.835 159.7 245.435 161.4C244.468 165.133 236.868 165.767 236.001 165.833Z" fill="#D17A68"/>
<path d="M214.434 142.267C213.668 140.767 219.034 139.1 223.734 139.433C228.434 139.767 229.368 141.533 229.068 143.2C228.768 144.867 215.234 143.733 214.434 142.267Z" fill="#2E3C5B"/>
<path d="M264.633 142.333C265.467 140.866 260.1 139 255.4 139.4C250.7 139.8 249.733 141.466 250 143.133C250.267 144.8 263.833 143.8 264.633 142.333Z" fill="#2E3C5B"/>
<path d="M238.767 178.833C237.097 178.826 235.453 178.426 233.967 177.666L234.733 176.199C235.974 176.845 237.351 177.182 238.75 177.182C240.148 177.182 241.526 176.845 242.767 176.199L243.5 177.7C242.031 178.438 240.411 178.826 238.767 178.833V178.833Z" fill="#D17A68"/>
<path d="M224.667 150.233C224.667 150.993 224.365 151.723 223.828 152.26C223.29 152.798 222.561 153.1 221.801 153.1C221.04 153.1 220.311 152.798 219.774 152.26C219.236 151.723 218.934 150.993 218.934 150.233C218.934 149.473 219.236 148.744 219.774 148.206C220.311 147.668 221.04 147.366 221.801 147.366C222.561 147.366 223.29 147.668 223.828 148.206C224.365 148.744 224.667 149.473 224.667 150.233Z" fill="#2E3C5B"/>
<path d="M260.167 150.233C260.167 150.8 259.999 151.354 259.684 151.826C259.369 152.297 258.921 152.665 258.398 152.882C257.874 153.099 257.297 153.155 256.741 153.045C256.185 152.934 255.674 152.661 255.274 152.26C254.873 151.859 254.6 151.348 254.489 150.792C254.378 150.236 254.435 149.66 254.652 149.136C254.869 148.612 255.236 148.165 255.708 147.85C256.179 147.535 256.734 147.366 257.3 147.366C257.677 147.366 258.05 147.441 258.398 147.585C258.745 147.729 259.061 147.94 259.328 148.206C259.594 148.472 259.805 148.788 259.949 149.136C260.093 149.484 260.167 149.857 260.167 150.233Z" fill="#2E3C5B"/>
<path d="M261.068 165.8C257.757 165.833 254.512 164.879 251.746 163.061C248.98 161.242 246.818 158.641 245.536 155.589C244.254 152.537 243.91 149.172 244.547 145.923C245.185 142.675 246.776 139.69 249.117 137.349C251.457 135.008 254.442 133.417 257.691 132.78C260.939 132.142 264.304 132.486 267.356 133.768C270.409 135.05 273.01 137.212 274.828 139.978C276.647 142.744 277.601 145.99 277.568 149.3C277.524 153.663 275.772 157.834 272.687 160.919C269.602 164.004 265.43 165.756 261.068 165.8ZM261.068 134.467C258.134 134.467 255.266 135.337 252.827 136.966C250.387 138.596 248.486 140.913 247.363 143.623C246.241 146.334 245.947 149.316 246.519 152.194C247.092 155.071 248.504 157.714 250.579 159.789C252.653 161.863 255.296 163.276 258.174 163.848C261.051 164.421 264.034 164.127 266.744 163.004C269.455 161.881 271.771 159.98 273.401 157.541C275.031 155.102 275.901 152.234 275.901 149.3C275.901 145.366 274.338 141.593 271.556 138.811C268.775 136.029 265.002 134.467 261.068 134.467V134.467Z" fill="white"/>
<path d="M216.867 166.533C213.459 166.533 210.127 165.522 207.293 163.628C204.459 161.735 202.25 159.043 200.946 155.894C199.641 152.745 199.3 149.28 199.965 145.937C200.63 142.595 202.271 139.524 204.682 137.114C207.092 134.704 210.162 133.062 213.505 132.397C216.848 131.732 220.313 132.074 223.462 133.378C226.611 134.682 229.303 136.891 231.196 139.725C233.09 142.559 234.101 145.891 234.101 149.3C234.092 153.867 232.273 158.246 229.043 161.476C225.813 164.706 221.435 166.524 216.867 166.533V166.533ZM216.867 133.733C213.789 133.733 210.779 134.646 208.219 136.356C205.659 138.067 203.664 140.498 202.486 143.342C201.307 146.187 200.999 149.317 201.6 152.336C202.2 155.356 203.683 158.13 205.86 160.307C208.037 162.484 210.811 163.966 213.83 164.567C216.85 165.168 219.98 164.859 222.824 163.681C225.669 162.503 228.1 160.508 229.811 157.948C231.521 155.388 232.434 152.378 232.434 149.3C232.425 145.174 230.782 141.219 227.865 138.302C224.948 135.385 220.993 133.742 216.867 133.733V133.733Z" fill="white"/>
<path d="M233.968 148.633L232.534 147.766C233.26 146.582 234.272 145.6 235.479 144.913C236.685 144.225 238.046 143.853 239.434 143.833V143.833C240.763 143.843 242.068 144.183 243.232 144.823C244.395 145.463 245.382 146.383 246.101 147.5L244.701 148.366C244.098 147.466 243.278 146.731 242.317 146.23C241.356 145.73 240.285 145.478 239.201 145.5C238.136 145.539 237.097 145.847 236.182 146.395C235.268 146.942 234.506 147.712 233.968 148.633V148.633Z" fill="white"/>
<path d="M216.333 197.366C206.35 198.079 197.015 202.574 190.233 209.933L207.533 216.6L192.733 221.4L215.033 353.266L214.766 206.366H216.466L216.333 197.366Z" fill="#DCECFF"/>
<path d="M262.1 197.366C272.074 198.074 281.4 202.57 288.167 209.933L270.9 216.6L285.7 221.4L263.367 353.133V206.466H262.1V197.366Z" fill="#DCECFF"/>
<path d="M322.197 267.423L318.215 352.497L319.879 352.575L323.862 267.501L322.197 267.423Z" fill="#DDEBF7"/>
<path d="M389.434 252C391.868 249 419.834 270.1 416.868 273.233C413.901 276.367 387.001 255.033 389.434 252Z" fill="#DCECFF"/>
<path d="M389.534 264.033C393.4 275.666 400.534 274.233 410.134 272.466C419.734 270.7 436.4 261.566 436.4 261.566C441.8 258.933 440 254.366 438.334 254.9C437.534 255.2 441.267 253.5 442.034 253.133C448.7 249.566 445.034 244.933 442.034 245.633C447.567 243.766 446.2 237.433 442.567 238.333C446.367 236.566 444.867 230.833 438.9 232.366C435.567 232.933 412.234 241 412.234 241C412.234 241 422.234 238.866 421.267 232.433C421.034 231.8 420.434 232.7 419.934 232.866C406.6 232.666 401.367 239.933 395.467 246.2C391.7 250.266 387.2 256.866 389.534 264.033Z" fill="#EDA694"/>
<path d="M438.503 253.959L423.693 258.301L424.162 259.9L438.972 255.558L438.503 253.959Z" fill="#D17A68"/>
<path d="M446.301 246.801L426.763 253.382L427.296 254.965L446.835 248.384L446.301 246.801Z" fill="#D17A68"/>
<path d="M446.607 246.69L424.44 254.157L424.974 255.74L447.14 248.273L446.607 246.69Z" fill="#D17A68"/>
<path d="M424.267 262.9L422.601 262.7C423.33 255.761 421.426 248.801 417.267 243.2L418.567 242.166C422.996 248.12 425.03 255.519 424.267 262.9V262.9Z" fill="#D17A68"/>
<path d="M409.101 258.866L407.901 257.7C413.201 252.3 414.367 246.9 411.434 241.233L412.934 240.466C416.167 246.766 415.034 252.966 409.101 258.866Z" fill="#D17A68"/>
<path d="M389.434 252C388.767 256.1 413.4 273.966 416.867 273.233C416.867 273.233 389.334 344.066 364.867 363.233C340.4 382.399 319.067 368 329.967 334.766C340.867 301.533 389.434 252 389.434 252Z" fill="white"/>
<path d="M411.433 283.366C405.133 283.366 383.833 267.766 382.1 261.866L383.7 261.4C385.233 266.6 405.867 281.7 411.4 281.7V283.366H411.433Z" fill="#DDEBF7"/>
<path d="M411.233 274.567C411.685 274.873 412.004 275.338 412.128 275.87C412.252 276.401 412.17 276.96 411.9 277.434C411.769 277.662 411.594 277.862 411.385 278.021C411.175 278.18 410.936 278.296 410.681 278.361C410.426 278.427 410.161 278.44 409.901 278.401C409.641 278.362 409.391 278.271 409.167 278.134C408.706 277.827 408.381 277.355 408.257 276.816C408.133 276.277 408.22 275.711 408.5 275.234C408.63 275.005 408.806 274.804 409.016 274.646C409.226 274.487 409.467 274.373 409.723 274.31C409.979 274.248 410.245 274.239 410.504 274.283C410.764 274.327 411.012 274.424 411.233 274.567V274.567Z" fill="#DAE6F5"/>
<path d="M339.367 317.7L337.967 316.833C345.334 304.833 352.367 294.433 359.401 285.133L360.734 286.133C353.734 295.4 346.734 305.733 339.367 317.7Z" fill="#DDEBF7"/>
<path d="M356.434 366.5C351.334 370.567 237.868 371.567 233.101 366.5C228.334 361.434 229.268 213.934 233.101 210.2C236.934 206.467 350.134 205.767 356.434 210.2C362.734 214.634 361.501 362.434 356.434 366.5Z" fill="#2E3C5B"/>
<path d="M326.567 258.033C302.833 242 259.567 242.2 244.967 270.533C242.394 275.418 240.948 280.817 240.733 286.333C240.577 288.869 240.97 291.408 241.885 293.778C242.799 296.148 244.214 298.293 246.033 300.067C248.274 301.954 250.916 303.304 253.759 304.015C256.601 304.726 259.568 304.777 262.433 304.167C262.433 304.167 261.5 314.867 269.733 319.633C272.414 321 275.355 321.78 278.36 321.924C281.366 322.068 284.368 321.571 287.167 320.467C289.584 323.793 293.146 326.108 297.167 326.967C299.394 331.205 301.9 335.292 304.667 339.2C306.813 339.952 309.134 340.045 311.333 339.467C312.126 336.015 312.418 332.468 312.2 328.933C329.133 329.533 332.2 317.367 332.2 317.367C334.565 317.55 336.941 317.173 339.133 316.267C345.8 313.333 347.9 306.9 347.833 300.067C347.984 293.054 346.855 286.074 344.5 279.467C340.869 270.648 334.606 263.163 326.567 258.033V258.033Z" fill="#5C71BC"/>
<path d="M287.534 321.666L286.8 319.267C291.974 317.715 297.004 315.719 301.834 313.3L302.167 313.133H302.534C309.981 314.033 317.534 313.351 324.7 311.133L325.7 310.8L326.2 311.733C326.793 312.88 327.643 313.874 328.684 314.637C329.725 315.4 330.929 315.912 332.2 316.133L331.634 318.566C330.186 318.29 328.808 317.726 327.583 316.907C326.358 316.088 325.309 315.032 324.5 313.8C317.408 315.872 309.974 316.507 302.634 315.666C297.78 318.091 292.728 320.099 287.534 321.666V321.666Z" fill="#2F488E"/>
<path d="M312 330.166C306.795 330.276 301.604 329.602 296.6 328.166L297.467 325.8C302.202 327.146 307.112 327.775 312.033 327.666L312 330.166Z" fill="#2F488E"/>
<path d="M263.634 305.366L261.934 303.5C263.276 302.135 264.4 300.573 265.267 298.867C266.39 296.584 267.98 294.562 269.934 292.933C272.387 291.421 275.162 290.508 278.034 290.266C280.842 290.136 283.537 289.121 285.734 287.367C286.026 287.046 286.273 286.687 286.467 286.3C286.76 285.208 286.76 284.058 286.467 282.966L286.3 282.133C285.607 278.745 286.077 275.221 287.634 272.133C288.414 270.594 289.513 269.239 290.858 268.158C292.203 267.078 293.763 266.296 295.434 265.867L297.134 265.533C298.465 265.526 299.747 265.028 300.734 264.133C301.205 263.288 301.446 262.334 301.434 261.367C301.419 259.834 301.898 258.338 302.8 257.1C303.648 256.375 304.651 255.853 305.731 255.576C306.812 255.299 307.942 255.273 309.034 255.5L308.834 258C307.167 258 305.5 257.833 304.7 258.767C304.163 259.611 303.896 260.6 303.934 261.6C303.918 263.03 303.502 264.427 302.734 265.633C302.072 266.359 301.27 266.942 300.376 267.349C299.482 267.756 298.516 267.977 297.534 268C297 268 296.5 268 296.034 268.3C294.705 268.647 293.466 269.272 292.397 270.134C291.328 270.996 290.455 272.075 289.834 273.3C288.574 275.838 288.188 278.72 288.734 281.5L288.9 282.3C289.402 283.883 289.402 285.583 288.9 287.167C288.604 287.847 288.186 288.468 287.667 289C285.125 291.199 281.923 292.489 278.567 292.667C276.074 292.871 273.659 293.634 271.5 294.9C269.86 296.331 268.522 298.077 267.567 300.033C266.549 302.009 265.221 303.81 263.634 305.366V305.366Z" fill="#2F488E"/>
<path d="M325.501 313.533L324.701 311.167C325.65 310.731 326.462 310.044 327.05 309.181C327.637 308.317 327.977 307.309 328.034 306.267C328.102 305.259 327.881 304.254 327.396 303.368C326.912 302.482 326.185 301.753 325.301 301.267C324.601 300.951 323.876 300.695 323.134 300.5L322.301 300.267C320.562 299.787 318.969 298.882 317.667 297.633C316.944 296.937 316.4 296.076 316.081 295.125C315.761 294.173 315.677 293.158 315.834 292.167C316.153 290.952 316.72 289.817 317.501 288.833L317.801 288.4C319.87 285.205 321.023 281.504 321.134 277.7V276.067C321.08 274.603 321.192 273.138 321.467 271.7C321.718 270.78 322.03 269.878 322.401 269C322.733 268.208 323.011 267.395 323.234 266.567C323.432 265.955 323.45 265.3 323.284 264.679C323.119 264.058 322.777 263.498 322.301 263.067L323.567 260.9C324.519 261.595 325.231 262.567 325.607 263.683C325.983 264.799 326.004 266.005 325.667 267.133C325.417 268.075 325.105 268.999 324.734 269.9C324.397 270.667 324.119 271.458 323.901 272.267C323.675 273.52 323.585 274.794 323.634 276.067V277.767C323.467 282.06 322.117 286.224 319.734 289.8L319.401 290.267C318.834 290.964 318.415 291.769 318.167 292.633C318.065 293.239 318.114 293.861 318.312 294.443C318.51 295.025 318.85 295.549 319.301 295.967C320.34 296.899 321.585 297.573 322.934 297.933L323.701 298.167C324.598 298.4 325.469 298.724 326.301 299.133C327.615 299.842 328.7 300.913 329.426 302.218C330.153 303.523 330.491 305.009 330.401 306.5C330.324 308.013 329.823 309.475 328.957 310.718C328.091 311.961 326.894 312.937 325.501 313.533V313.533Z" fill="#2F488E"/>
<path d="M332 282.466C330.862 282.475 329.764 282.045 328.934 281.266C328.281 280.561 327.848 279.681 327.688 278.734C327.528 277.786 327.648 276.813 328.034 275.933C328.653 274.469 329.573 273.151 330.734 272.066L332.567 273.766C331.649 274.63 330.903 275.659 330.367 276.799C330.166 277.228 330.088 277.705 330.141 278.175C330.194 278.646 330.376 279.093 330.667 279.466C330.994 279.733 331.392 279.9 331.811 279.947C332.231 279.995 332.655 279.92 333.034 279.733C333.971 279.27 334.715 278.491 335.134 277.533C335.371 277.049 335.674 276.6 336.034 276.199C336.887 275.539 337.96 275.229 339.034 275.333C340.87 275.142 342.709 275.668 344.167 276.799L342.4 278.566C341.412 277.933 340.23 277.673 339.067 277.833C338.7 277.833 338 277.833 337.8 278.033C337.659 278.19 337.547 278.371 337.467 278.566C336.753 280.014 335.581 281.186 334.134 281.899C333.478 282.255 332.746 282.449 332 282.466V282.466Z" fill="#2F488E"/>
<path d="M335.3 295.467L333.267 293.967C333.702 293.355 333.955 292.633 333.996 291.884C334.038 291.134 333.866 290.389 333.5 289.733C333.267 289.367 333.133 289.333 333.133 289.333C333.133 289.333 332.533 289.333 332.267 289.533C330.98 290.044 329.617 290.337 328.233 290.4C326.685 290.443 325.176 289.909 324 288.9C323.169 288.091 322.521 287.114 322.1 286.033C321.57 284.766 321.168 283.448 320.9 282.1L323.367 281.633C323.599 282.776 323.945 283.893 324.4 284.967C324.668 285.719 325.101 286.403 325.667 286.967C326.4 287.561 327.324 287.868 328.267 287.833C329.41 287.792 330.537 287.556 331.6 287.133C332.391 286.761 333.288 286.679 334.133 286.9C334.873 287.161 335.482 287.699 335.833 288.4C336.418 289.509 336.678 290.76 336.584 292.01C336.489 293.26 336.044 294.458 335.3 295.467Z" fill="#2F488E"/>
<path d="M257.866 294.6C256.333 293.8 252.7 291.933 252.533 288.533C252.487 287.815 252.674 287.102 253.066 286.5C253.4 286.067 253.835 285.724 254.333 285.5C255.177 285.1 256.059 284.788 256.966 284.566C258.147 284.368 259.246 283.836 260.133 283.033C260.419 282.684 260.665 282.303 260.866 281.9C261.193 281.155 261.67 280.486 262.266 279.933C263.478 278.96 264.98 278.421 266.533 278.399C268.682 278.136 270.795 277.633 272.833 276.9C273.873 276.661 274.847 276.193 275.683 275.53C276.519 274.866 277.197 274.025 277.666 273.066C277.843 271.828 277.668 270.565 277.161 269.421C276.654 268.278 275.836 267.3 274.8 266.6L274.1 266.033C272.268 264.913 270.95 263.117 270.433 261.033C270.4 260.556 270.4 260.077 270.433 259.6C270.568 259.143 270.568 258.656 270.433 258.2C270.2 257.8 269.4 257.666 268.333 257.766C267.534 257.834 266.743 257.968 265.966 258.166C265.754 258.188 265.549 258.257 265.366 258.366C265.366 258.366 265.366 257.966 265.366 257.833L263.633 259.633C263.238 259.233 263.017 258.694 263.017 258.133C263.017 257.571 263.238 257.032 263.633 256.633C264.135 256.148 264.776 255.834 265.466 255.733C266.343 255.513 267.234 255.357 268.133 255.266C268.954 255.055 269.819 255.09 270.62 255.369C271.421 255.648 272.121 256.157 272.633 256.833C273.095 257.725 273.27 258.738 273.133 259.733C273.1 260.065 273.1 260.4 273.133 260.733C273.3 261.999 274.533 262.999 275.866 264.066L276.6 264.666C278.039 265.709 279.134 267.157 279.746 268.826C280.357 270.494 280.457 272.307 280.033 274.033C279.461 275.357 278.592 276.533 277.494 277.469C276.396 278.405 275.098 279.077 273.7 279.433C271.545 280.208 269.308 280.733 267.033 280.999C265.856 280.986 264.699 281.31 263.7 281.933C263.343 282.317 263.05 282.756 262.833 283.233C262.548 283.803 262.202 284.339 261.8 284.833C260.61 286.023 259.087 286.825 257.433 287.133C256.677 287.317 255.94 287.574 255.233 287.9C255.094 287.946 254.968 288.026 254.866 288.133C254.816 288.284 254.816 288.448 254.866 288.599C254.866 290.333 257.033 291.6 258.833 292.533L257.866 294.6Z" fill="#2F488E"/>
<path d="M245.033 279.833L242.733 278.8C244.143 276.091 245.89 273.571 247.933 271.3C248.9 270.1 251.266 267.333 254.233 267.967C255.2 268.201 256.097 268.666 256.846 269.322C257.595 269.978 258.173 270.805 258.533 271.733C258.727 272.187 258.998 272.604 259.333 272.967C259.57 273.092 259.841 273.138 260.105 273.096C260.37 273.053 260.614 272.926 260.8 272.733C261.028 272.447 261.184 272.109 261.254 271.749C261.324 271.389 261.305 271.018 261.2 270.667C260.947 269.789 260.464 268.994 259.8 268.367C259.419 268.05 259.114 267.652 258.906 267.202C258.699 266.752 258.594 266.262 258.6 265.767C258.693 265.173 258.973 264.624 259.4 264.2C260.145 263.426 261.105 262.891 262.156 262.666C263.207 262.44 264.302 262.533 265.3 262.933L264.333 265.233C263.808 265.027 263.234 264.981 262.682 265.099C262.131 265.218 261.627 265.496 261.233 265.9C261.233 266.133 261.433 266.433 261.6 266.6C262.585 267.558 263.289 268.769 263.633 270.1C263.839 270.851 263.852 271.642 263.671 272.399C263.491 273.156 263.122 273.856 262.6 274.433C262.007 275.077 261.202 275.486 260.332 275.584C259.463 275.682 258.587 275.463 257.866 274.967C257.233 274.446 256.73 273.784 256.4 273.033C255.8 271.867 254.933 270.6 253.833 270.433C252.733 270.267 251.033 271.6 249.833 273.033C247.949 275.086 246.336 277.371 245.033 279.833V279.833Z" fill="#2F488E"/>
<path d="M283.834 266.166C283.481 266.217 283.122 266.217 282.768 266.166L283.534 263.766C283.703 263.811 283.88 263.819 284.052 263.79C284.225 263.761 284.389 263.696 284.534 263.599C284.696 263.521 284.836 263.405 284.942 263.26C285.049 263.116 285.118 262.947 285.144 262.77C285.171 262.592 285.153 262.411 285.093 262.242C285.033 262.073 284.933 261.921 284.801 261.799C284.552 261.561 284.24 261.399 283.901 261.333C283.613 261.362 283.323 261.362 283.034 261.333C282.519 261.281 282.019 261.124 281.566 260.872C281.113 260.619 280.717 260.277 280.401 259.866C279.847 259.25 279.425 258.527 279.162 257.741C278.898 256.956 278.798 256.125 278.868 255.299C278.962 254.43 279.271 253.598 279.765 252.877C280.259 252.155 280.925 251.568 281.701 251.166L282.801 253.433C282.404 253.641 282.065 253.945 281.814 254.318C281.564 254.69 281.411 255.119 281.368 255.566C281.329 256.048 281.389 256.533 281.544 256.992C281.698 257.45 281.945 257.872 282.268 258.233C282.487 258.533 282.806 258.746 283.168 258.833H283.901C284.438 258.847 284.966 258.974 285.451 259.205C285.936 259.436 286.367 259.767 286.716 260.176C287.065 260.584 287.324 261.061 287.476 261.577C287.629 262.092 287.671 262.633 287.601 263.166C287.515 263.698 287.312 264.204 287.007 264.648C286.701 265.092 286.301 265.463 285.834 265.733C285.221 266.059 284.528 266.209 283.834 266.166V266.166Z" fill="#2F488E"/>
<path d="M292.534 260.699C292.087 260.704 291.644 260.613 291.234 260.433C290.368 260.033 289.334 259.066 289.334 256.566C289.34 254.785 289.53 253.008 289.901 251.266L292.334 251.799C292.002 253.367 291.834 254.964 291.834 256.566C291.834 257.533 292.034 258.066 292.268 258.166C292.566 258.215 292.87 258.215 293.168 258.166C293.47 258.149 293.765 258.069 294.034 257.933C294.161 257.771 294.262 257.591 294.334 257.399L295.334 255.533C295.578 254.944 295.968 254.428 296.468 254.033C297.049 253.663 297.714 253.445 298.401 253.399L299.768 253.233C301.801 252.966 302.568 253.666 302.901 254.299L300.668 255.433C300.901 255.666 300.668 255.633 300.368 255.666L298.701 255.866C298.435 255.884 298.175 255.952 297.934 256.066C297.771 256.257 297.637 256.47 297.534 256.699L296.568 258.566C296.353 259.033 296.047 259.453 295.668 259.799C295.055 260.283 294.312 260.573 293.534 260.633C293.203 260.678 292.869 260.7 292.534 260.699V260.699Z" fill="#2F488E"/>
<path d="M302.8 279.533C302.036 278.786 301.436 277.886 301.04 276.893C300.644 275.9 300.46 274.835 300.5 273.767C300.567 272.644 300.987 271.57 301.7 270.7C302.617 269.767 303.769 269.1 305.034 268.767L308.1 267.8C308.244 267.824 308.39 267.824 308.533 267.8C308.539 267.7 308.539 267.6 308.533 267.5C308.914 266.549 309.215 265.568 309.434 264.567C309.521 263.965 309.83 263.418 310.3 263.033C310.643 262.792 311.048 262.653 311.467 262.633C312.726 262.462 313.998 262.406 315.267 262.467V264.967C314.157 264.887 313.043 264.887 311.934 264.967C311.772 266.114 311.458 267.235 311 268.3C310.865 268.757 310.612 269.171 310.267 269.5C309.853 269.834 309.377 270.083 308.867 270.233L305.833 271.167C304.97 271.354 304.168 271.755 303.5 272.333C303.137 272.826 302.938 273.421 302.933 274.033C302.906 274.744 303.028 275.453 303.292 276.113C303.556 276.774 303.956 277.371 304.467 277.867L302.8 279.533Z" fill="#2F488E"/>
<path d="M285.234 308.833C284.091 307.449 283.127 305.926 282.367 304.3C281.761 303.355 281.439 302.256 281.439 301.133C281.439 300.01 281.761 298.911 282.367 297.966C282.955 297.317 283.669 296.795 284.467 296.433C284.819 296.265 285.154 296.065 285.467 295.833C286.407 294.916 287.085 293.766 287.434 292.5C287.713 291.884 288.024 291.283 288.367 290.7C289.494 288.598 291.077 286.776 293 285.366C294.807 283.739 297.082 282.724 299.5 282.466C300.475 282.489 301.446 282.601 302.4 282.8H303.167C305.175 283.133 307.225 283.133 309.234 282.8C309.838 282.774 310.431 282.624 310.976 282.361C311.52 282.097 312.005 281.725 312.4 281.266C312.9 280.148 313.051 278.905 312.834 277.7C312.48 275.881 312.838 273.996 313.834 272.433L315.8 273.966C315.23 275.063 315.054 276.322 315.3 277.533C315.618 279.275 315.336 281.072 314.5 282.633C313.925 283.395 313.193 284.024 312.353 284.479C311.513 284.933 310.586 285.202 309.634 285.266C307.351 285.666 305.016 285.666 302.734 285.266H301.934C301.153 285.115 300.362 285.026 299.567 285C297.701 285.248 295.956 286.062 294.567 287.333C292.929 288.522 291.575 290.059 290.6 291.833C290.334 292.366 290.134 292.966 289.9 293.533C289.41 295.248 288.438 296.787 287.1 297.966C286.673 298.271 286.228 298.549 285.767 298.8C285.262 298.999 284.807 299.306 284.434 299.7C283.6 300.7 284.434 302.6 284.7 303.366C285.369 304.813 286.221 306.169 287.234 307.4L285.234 308.833Z" fill="#2F488E"/>
<path d="M286.167 314.033L285.067 311.8C286.118 311.115 286.978 310.174 287.567 309.067C288.161 308.041 288.89 307.1 289.734 306.267C290.802 305.337 292.117 304.738 293.52 304.542C294.923 304.347 296.352 304.564 297.634 305.167C298.287 305.515 298.912 305.917 299.5 306.367C300.213 306.987 301.074 307.412 302 307.6C302.518 307.61 303.035 307.542 303.533 307.4C304.508 307.164 305.525 307.164 306.5 307.4C307.566 307.741 308.514 308.377 309.234 309.233C309.551 309.551 309.885 309.851 310.234 310.133C311.287 310.583 312.421 310.814 313.567 310.814C314.712 310.814 315.846 310.583 316.9 310.133L317.534 312.533C316.132 313.097 314.624 313.347 313.115 313.266C311.607 313.186 310.134 312.776 308.8 312.067C308.324 311.715 307.879 311.325 307.467 310.9C307.041 310.374 306.491 309.962 305.867 309.7C305.262 309.614 304.645 309.671 304.067 309.867C303.326 310.05 302.563 310.129 301.8 310.1C300.415 309.881 299.114 309.294 298.034 308.4C297.567 308.028 297.065 307.704 296.534 307.433C295.701 307.047 294.774 306.907 293.864 307.031C292.954 307.155 292.099 307.538 291.4 308.133C290.718 308.811 290.124 309.573 289.634 310.4C288.845 311.915 287.643 313.174 286.167 314.033V314.033Z" fill="#2F488E"/>
<path d="M305.567 303.567C305.168 303.599 304.766 303.599 304.367 303.567C302.817 303.172 301.451 302.253 300.501 300.967C299.897 300.199 299.434 299.33 299.134 298.4C299.134 298 298.901 297.567 298.801 297.167C298.701 296.767 298.567 296.233 298.401 295.8C298.035 294.998 297.426 294.331 296.66 293.895C295.894 293.458 295.01 293.273 294.134 293.367L293.801 290.867C295.224 290.698 296.664 290.993 297.907 291.707C299.15 292.422 300.13 293.518 300.701 294.833C300.909 295.401 301.087 295.98 301.234 296.567C301.303 296.916 301.392 297.261 301.501 297.6C301.715 298.262 302.042 298.882 302.467 299.433C303.069 300.267 303.94 300.867 304.934 301.133C305.355 301.233 305.795 301.228 306.213 301.117C306.632 301.007 307.017 300.795 307.334 300.5L309.134 302.233C308.656 302.679 308.095 303.027 307.483 303.255C306.871 303.484 306.22 303.59 305.567 303.567V303.567Z" fill="#2F488E"/>
<path d="M279.067 319.267C278.116 318.685 277.301 317.904 276.68 316.977C276.059 316.051 275.645 315.001 275.467 313.9C275.46 313.134 275.561 312.371 275.767 311.633C275.95 311.098 276.029 310.532 276.001 309.967C275.714 309.055 275.156 308.253 274.401 307.667C273.871 307.183 273.391 306.647 272.967 306.067C272.458 305.395 272.093 304.624 271.898 303.803C271.703 302.982 271.681 302.13 271.834 301.3C272.002 300.428 272.399 299.616 272.985 298.948C273.571 298.28 274.324 297.78 275.167 297.5L275.867 299.9C275.45 300.042 275.079 300.293 274.792 300.627C274.504 300.961 274.312 301.366 274.234 301.8C274.149 302.288 274.164 302.787 274.278 303.269C274.393 303.75 274.605 304.203 274.901 304.6C275.274 305.057 275.675 305.491 276.101 305.9C277.094 306.581 277.832 307.573 278.2 308.719C278.568 309.866 278.545 311.102 278.134 312.233C277.985 312.731 277.906 313.247 277.901 313.767C277.901 315.1 279.234 316.267 280.567 317.3L279.067 319.267Z" fill="#2F488E"/>
<path d="M271.3 294.266C270.932 293.96 270.635 293.578 270.428 293.147C270.221 292.716 270.109 292.245 270.1 291.766C270.071 290.759 270.328 289.764 270.842 288.897C271.355 288.03 272.103 287.326 273 286.866C273.588 286.601 274.203 286.4 274.833 286.266C275.281 286.184 275.717 286.05 276.133 285.866C276.769 285.543 277.265 284.999 277.529 284.337C277.793 283.674 277.806 282.938 277.567 282.266L279.867 281.333C280.314 282.582 280.286 283.952 279.788 285.181C279.29 286.411 278.357 287.414 277.167 288C276.614 288.258 276.032 288.448 275.433 288.566C274.974 288.66 274.527 288.806 274.1 289C273.64 289.232 273.254 289.591 272.989 290.033C272.724 290.475 272.589 290.984 272.6 291.5C272.6 291.726 272.67 291.948 272.8 292.133L271.3 294.266Z" fill="#2F488E"/>
<path d="M241.201 219.6L241.001 217.967C258.471 216.488 276.014 216.065 293.534 216.7V218.367C276.081 217.736 258.606 218.148 241.201 219.6V219.6Z" fill="#516896"/>
<path d="M240.801 228.566V226.9C250.46 226.366 260.142 226.366 269.801 226.9V228.566C260.142 228.026 250.46 228.026 240.801 228.566V228.566Z" fill="#516896"/>
<path d="M319.567 364.566C317.607 364.749 315.629 364.568 313.734 364.033C312.634 363.133 312.468 360.699 312.468 359.299C312.468 358.566 312.467 354.966 313.734 353.933C315.001 352.899 346.268 351.833 349.434 353.033C351.034 353.633 351.334 356.366 351.401 357.199C351.401 359.199 351.168 361.599 349.768 362.366C339.761 363.775 329.672 364.51 319.567 364.566ZM340.767 354.299C331.034 354.299 315.967 354.766 314.701 355.266C314.199 356.721 314.006 358.265 314.134 359.799C314.054 360.833 314.286 361.866 314.801 362.766C326.221 363.045 337.646 362.421 348.967 360.899C349.332 360.388 349.588 359.809 349.72 359.195C349.851 358.582 349.856 357.948 349.734 357.333C349.734 355.599 349.101 354.666 348.867 354.599C346.177 354.316 343.471 354.215 340.767 354.299V354.299Z" fill="#516896"/>
<path d="M199.834 285.466C193.367 294.8 209.534 320.633 219.834 317.966C223.234 316.766 203.067 283.633 199.834 285.466Z" fill="#DCECFF"/>
<path d="M196.934 299.7C198 313.033 213.967 314.7 215.867 315.233C228.7 317.866 249.2 312.533 249.2 312.533C255.334 311.533 254.667 306.233 252.8 306.166C251.9 306.166 256.134 305.7 257.034 305.567C264.7 304.067 262.134 298.1 259 297.833C265.1 297.833 265.267 290.7 261.334 290.433C265.667 289.866 265.567 283.433 259.1 283.033C255.5 282.5 225.767 283.266 225.767 283.266C225.767 282.166 227.567 281.466 229.8 280.633V273.167C221.623 274.699 213.918 278.124 207.3 283.167C202.4 286.267 196.3 291.666 196.934 299.7Z" fill="#EDA694"/>
<path d="M252.582 305.52L234.058 306.099L234.11 307.764L252.634 307.186L252.582 305.52Z" fill="#D17A68"/>
<path d="M258.878 297.234L235.402 298.884L235.519 300.547L258.994 298.897L258.878 297.234Z" fill="#D17A68"/>
<path d="M235.3 292.399L235.2 290.733L261.234 289.533L261.334 291.199L235.3 292.399Z" fill="#D17A68"/>
<path d="M212 315.266C209.713 314.602 207.59 313.466 205.767 311.933L206.867 310.633C208.476 311.998 210.348 313.019 212.367 313.633L212 315.266Z" fill="#D17A68"/>
<path d="M199.834 285.466C199.834 285.466 122.901 318.8 105.968 341C104.134 347.1 144.234 369.833 144.234 369.833C159.001 363.833 198.368 337.633 219.801 317.966C213.234 316.433 197.934 291.033 199.834 285.466Z" fill="white"/>
<path d="M130.3 320.7L129.466 319.266C149.891 307.679 170.959 297.262 192.566 288.066L193.233 289.633C171.67 298.757 150.656 309.13 130.3 320.7V320.7Z" fill="#DDEBF7"/>
<path d="M212.767 325.066C204.601 324.799 194.501 311.433 190.367 301.733C188.901 298.399 186.8 292.299 189.267 289.533L190.501 290.633C189.201 292.133 189.701 296.033 191.901 301.099C196.367 311.433 206.067 323.066 212.834 323.299L212.767 325.066Z" fill="#DDEBF7"/>
<path d="M213.168 318C213.11 318.452 212.92 318.878 212.621 319.222C212.321 319.566 211.926 319.813 211.486 319.932C211.046 320.051 210.58 320.036 210.148 319.89C209.716 319.744 209.337 319.473 209.06 319.111C208.783 318.749 208.619 318.312 208.59 317.857C208.561 317.402 208.669 316.949 208.898 316.554C209.127 316.16 209.469 315.843 209.879 315.644C210.289 315.444 210.749 315.371 211.201 315.433C211.8 315.516 212.343 315.832 212.711 316.313C213.08 316.793 213.243 317.399 213.168 318V318Z" fill="#DCECFF"/>
<path d="M159.867 362.567L159.001 361.167C176.962 350.361 194.128 338.286 210.367 325.033L211.434 326.333C195.135 339.63 177.901 351.739 159.867 362.567V362.567Z" fill="#DDEBF7"/>
<path d="M140.634 308L140.134 306.4C145.192 305.043 150.457 304.624 155.667 305.167V306.833C150.627 306.301 145.531 306.696 140.634 308V308Z" fill="#DDEBF7"/>
<path d="M159.08 271.323L157.416 271.41L159.107 303.799L160.772 303.712L159.08 271.323Z" fill="#DDEBF7"/>
<path d="M435.801 205.033H419.5V227.067H435.801V205.033Z" fill="#F2BB22"/>
<path d="M439 268.633C436.5 274.1 421.567 276.366 416.934 269.433C413.967 265.133 417.134 225.166 418.067 224.066C419 222.966 436.134 222.966 437.234 224.066C438.334 225.166 441.7 263.166 439 268.633Z" fill="#2E3C5B"/>
<path d="M478.367 153.533C477.88 145.169 475.289 137.063 470.834 129.967C466.243 123.206 459.572 118.127 451.834 115.5C426.867 105.7 390.967 112.633 380.334 139.967C375.822 151.482 375.179 164.153 378.501 176.067C382.567 190.033 389.667 199.4 403.134 205.633C420.067 213.433 443.134 212.733 458.767 201.933C474.401 191.133 479.967 171.967 478.367 153.533ZM450.667 191.333C444.558 195.152 437.599 197.4 430.411 197.877C423.222 198.354 416.027 197.045 409.467 194.067C404.919 192.104 400.896 189.099 397.723 185.294C394.55 181.49 392.316 176.993 391.201 172.167C388.766 163.366 389.234 154.014 392.534 145.5C400.434 125.233 427.034 120.1 445.534 127.367C451.263 129.323 456.2 133.091 459.601 138.1C462.893 143.353 464.818 149.346 465.201 155.533C466.401 169.133 462.501 183.2 450.801 191.333H450.667Z" fill="#2E3C5B"/>
<path d="M459.533 161.866C459.035 161.832 458.57 161.603 458.24 161.229C457.909 160.855 457.739 160.365 457.767 159.866C457.882 158.135 457.882 156.398 457.767 154.666C457.513 150.244 456.148 145.956 453.8 142.2C451.383 138.667 447.868 136.03 443.8 134.7C440.846 133.576 437.749 132.869 434.6 132.6C434.105 132.556 433.647 132.317 433.329 131.935C433.01 131.554 432.856 131.062 432.9 130.566C432.944 130.071 433.183 129.614 433.564 129.295C433.946 128.977 434.438 128.822 434.933 128.866C438.441 129.157 441.888 129.954 445.166 131.233C449.913 132.866 453.997 136.002 456.8 140.166C459.496 144.441 461.077 149.323 461.4 154.366C461.516 156.276 461.516 158.19 461.4 160.1C461.366 160.575 461.156 161.019 460.811 161.347C460.465 161.674 460.009 161.859 459.533 161.866V161.866Z" fill="white"/>
<path d="M416.9 232.733C420.233 232.733 423.567 232.733 426.9 232.733C426.9 232.733 429.7 239 417.8 240.133C405.9 241.267 416.9 232.733 416.9 232.733Z" fill="#EDA694"/>
<path d="M404.267 369.067C402.711 369.067 401.219 368.448 400.118 367.348C399.018 366.248 398.4 364.756 398.4 363.2V330.9H410.133V363.2C410.133 364.756 409.515 366.248 408.415 367.348C407.315 368.448 405.823 369.067 404.267 369.067V369.067Z" fill="white"/>
<path d="M404.267 360.433C403.703 360.433 403.144 360.322 402.622 360.106C402.1 359.89 401.626 359.573 401.227 359.174C400.828 358.774 400.511 358.3 400.295 357.778C400.079 357.257 399.968 356.698 399.968 356.133V331.3H408.601V356.133C408.592 357.276 408.132 358.37 407.32 359.176C406.508 359.981 405.411 360.433 404.267 360.433V360.433Z" fill="#E6F1FF"/>
<path d="M404.267 367.367C403.703 367.367 403.144 367.255 402.622 367.039C402.1 366.823 401.626 366.506 401.227 366.107C400.828 365.708 400.511 365.234 400.295 364.712C400.079 364.19 399.968 363.631 399.968 363.067V338.267H408.601V363.067C408.592 364.21 408.132 365.304 407.32 366.109C406.508 366.915 405.411 367.367 404.267 367.367V367.367Z" fill="#E55C6D"/>
<path d="M410.768 330.233C406.456 329.816 402.113 329.816 397.801 330.233C397.517 331.133 397.517 332.099 397.801 332.999C398.101 333.266 410.468 332.999 410.768 332.999C411.035 332.097 411.035 331.136 410.768 330.233V330.233Z" fill="white"/>
<path d="M421.1 369.067C419.544 369.067 418.051 368.448 416.951 367.348C415.851 366.248 415.233 364.756 415.233 363.2V330.9H426.966V363.2C426.966 363.97 426.815 364.733 426.52 365.445C426.225 366.157 425.793 366.803 425.248 367.348C424.703 367.893 424.056 368.325 423.345 368.62C422.633 368.915 421.87 369.067 421.1 369.067V369.067Z" fill="white"/>
<path d="M421.1 360.433C419.956 360.433 418.859 359.981 418.047 359.176C417.235 358.37 416.775 357.276 416.766 356.133V331.3H425.399V356.133C425.399 357.273 424.946 358.367 424.14 359.174C423.334 359.98 422.24 360.433 421.1 360.433V360.433Z" fill="#E6F1FF"/>
<path d="M421.1 367.367C419.956 367.367 418.859 366.915 418.047 366.109C417.235 365.304 416.775 364.21 416.766 363.067V338.267H425.399V363.067C425.399 364.207 424.946 365.301 424.14 366.107C423.334 366.914 422.24 367.367 421.1 367.367V367.367Z" fill="#E55C6D"/>
<path d="M427.567 330.233C423.255 329.816 418.913 329.816 414.6 330.233C414.333 331.136 414.333 332.097 414.6 332.999C414.9 333.266 427.3 332.999 427.567 332.999C427.851 332.099 427.851 331.133 427.567 330.233V330.233Z" fill="white"/>
<path d="M437.9 369.067C436.344 369.067 434.852 368.448 433.751 367.348C432.651 366.248 432.033 364.756 432.033 363.2V330.9H443.766V363.2C443.766 364.756 443.148 366.248 442.048 367.348C440.948 368.448 439.456 369.067 437.9 369.067V369.067Z" fill="white"/>
<path d="M437.9 360.433C436.76 360.433 435.666 359.98 434.86 359.174C434.053 358.367 433.6 357.273 433.6 356.133V331.3H442.2V356.133C442.2 357.273 441.747 358.367 440.941 359.174C440.134 359.98 439.041 360.433 437.9 360.433Z" fill="#E6F1FF"/>
<path d="M437.9 367.367C436.76 367.367 435.666 366.914 434.86 366.107C434.053 365.301 433.6 364.207 433.6 363.067V338.267H442.2V363.067C442.2 364.207 441.747 365.301 440.941 366.107C440.134 366.914 439.041 367.367 437.9 367.367V367.367Z" fill="#E55C6D"/>
<path d="M444.401 330.233C440.089 329.816 435.747 329.816 431.434 330.233C431.135 331.131 431.135 332.102 431.434 332.999C431.734 333.266 444.101 332.999 444.401 332.999C444.669 332.097 444.669 331.136 444.401 330.233V330.233Z" fill="white"/>
<path d="M454.701 369.067C453.932 369.067 453.171 368.915 452.461 368.619C451.751 368.324 451.106 367.891 450.564 367.346C450.022 366.801 449.593 366.154 449.302 365.442C449.011 364.731 448.863 363.969 448.868 363.2V330.9H460.567V363.2C460.567 364.756 459.949 366.248 458.849 367.348C457.749 368.448 456.257 369.067 454.701 369.067V369.067Z" fill="white"/>
<path d="M454.701 360.433C453.56 360.433 452.467 359.98 451.66 359.174C450.854 358.367 450.401 357.273 450.401 356.133V331.3H459.034V356.133C459.025 357.276 458.565 358.37 457.753 359.176C456.941 359.981 455.844 360.433 454.701 360.433V360.433Z" fill="#E6F1FF"/>
<path d="M454.701 367.367C453.56 367.367 452.467 366.914 451.66 366.107C450.854 365.301 450.401 364.207 450.401 363.067V338.267H459.034V363.067C459.025 364.21 458.565 365.304 457.753 366.109C456.941 366.915 455.844 367.367 454.701 367.367V367.367Z" fill="#E55C6D"/>
<path d="M461.2 330.233C456.888 329.816 452.545 329.816 448.233 330.233C447.966 331.136 447.966 332.097 448.233 332.999C448.533 333.266 460.9 332.999 461.2 332.999C461.484 332.099 461.484 331.133 461.2 330.233V330.233Z" fill="white"/>
<path d="M471.7 369.067C470.144 369.067 468.652 368.448 467.552 367.348C466.452 366.248 465.833 364.756 465.833 363.2V330.9H477.567V363.2C477.567 364.756 476.949 366.248 475.849 367.348C474.748 368.448 473.256 369.067 471.7 369.067V369.067Z" fill="white"/>
<path d="M471.701 360.433C470.56 360.433 469.467 359.98 468.66 359.174C467.854 358.367 467.401 357.273 467.401 356.133V331.3H476.001V356.133C476.001 356.698 475.89 357.257 475.674 357.778C475.457 358.3 475.141 358.774 474.741 359.174C474.342 359.573 473.868 359.89 473.346 360.106C472.825 360.322 472.265 360.433 471.701 360.433Z" fill="#E6F1FF"/>
<path d="M471.701 367.367C470.56 367.367 469.467 366.914 468.66 366.107C467.854 365.301 467.401 364.207 467.401 363.067V338.267H476.001V363.067C476.001 363.631 475.89 364.19 475.674 364.712C475.457 365.234 475.141 365.708 474.741 366.107C474.342 366.506 473.868 366.823 473.346 367.039C472.825 367.255 472.265 367.367 471.701 367.367V367.367Z" fill="#E55C6D"/>
<path d="M478.033 330.233C473.71 329.817 469.357 329.817 465.033 330.233C464.766 331.136 464.766 332.097 465.033 333C465.333 333.267 477.733 333 478.033 333C478.285 332.095 478.285 331.138 478.033 330.233V330.233Z" fill="white"/>
<path d="M484.001 368.299C484.234 364.966 484.234 351.233 484.001 346.566H486.701C487.634 346.566 487.667 343.233 486.701 342.933C485.734 342.633 388.734 342.566 387.934 342.933C386.467 343.566 386.967 346.566 387.934 346.566H390.267V368.333C389.484 368.312 388.702 368.38 387.934 368.533C386.467 369.733 386.967 378.799 387.934 378.799H486.701C487.634 378.799 487.667 369.333 486.701 368.533C485.811 368.361 484.906 368.283 484.001 368.299ZM394.001 368.299C394.234 364.966 394.234 351.299 394.001 346.666H480.467V368.266C467.034 367.866 406.934 367.866 393.901 368.199L394.001 368.299Z" fill="#2E3C5B"/>
<path d="M393.934 345.733H390.301V347.4H393.934V345.733Z" fill="#516896"/>
<path d="M393.934 367.366H390.301V369.033H393.934V367.366Z" fill="#516896"/>
<path d="M484.066 345.733H480.433V347.4H484.066V345.733Z" fill="#516896"/>
<path d="M484.066 367.467H480.433V369.133H484.066V367.467Z" fill="#516896"/>
<path d="M482.267 352.3H392.134V353.966H482.267V352.3Z" fill="#2E3C5B"/>
<path d="M96.4009 292.567C95.8009 291.9 89.9341 293.833 90.0008 295.133C91.3909 299.506 93.0954 303.773 95.1008 307.9C97.446 307.717 99.6792 306.822 101.501 305.333C100.079 300.972 98.3751 296.707 96.4009 292.567V292.567Z" fill="white"/>
<path d="M64.6342 261.366C17.9676 265.633 1.30083 335.733 34.3675 362L64.6342 343.933C64.4238 341.306 65.0359 338.678 66.3857 336.415C67.7355 334.151 69.7563 332.363 72.1676 331.3V323.4H68.3675C67.7298 323.4 67.1072 323.594 66.5831 323.958C66.0589 324.321 65.6581 324.836 65.4342 325.433C62.1009 324.466 47.8342 327.933 46.5342 309.133C46.1009 295.3 65.7342 287.733 65.7342 287.733L64.6342 261.366Z" fill="white"/>
<path d="M80.5035 242.466L62.9006 249.528L75.163 280.093L92.7659 273.031L80.5035 242.466Z" fill="white"/>
<path d="M67.7235 210.562L50.1206 217.625L61.2039 245.251L78.8068 238.189L67.7235 210.562Z" fill="#2E3C5B"/>
<path d="M80.0002 237.667C73.0952 239.722 66.3989 242.423 60.0002 245.733C60.1471 247.289 60.7371 248.77 61.7003 250C68.5035 247.663 75.1794 244.97 81.7003 241.933C81.559 240.377 80.9684 238.894 80.0002 237.667Z" fill="#2E3C5B"/>
<path d="M66.801 204.733C59.9634 206.977 53.282 209.672 46.801 212.8C45.7344 213.833 48.3343 218.7 49.1677 218.733C50.001 218.766 68.5677 211.266 69.1677 210.666C69.7677 210.066 67.8344 204.733 66.801 204.733Z" fill="#2E3C5B"/>
<path d="M93.6344 279.8C92.6678 278.7 83.1012 281.867 83.1678 284C85.4578 291.161 88.2652 298.146 91.5678 304.9C92.3678 305.867 102.035 301.9 102.035 300.7C99.6765 293.564 96.8708 286.583 93.6344 279.8V279.8Z" fill="#2E3C5B"/>
<path d="M92.7335 273C92.7335 273 105.134 270.333 106.334 271.033C107.534 271.733 108.134 275.567 108.134 275.567L78.1335 287.6L75.1335 280.067L92.7335 273Z" fill="#2E3C5B"/>
<path d="M117.567 330.5C116.167 331.733 70.2998 336.633 69.3665 335.566C68.3495 331.428 68.3495 327.105 69.3665 322.966C70.3998 321.733 116.267 321.9 117.567 322.966C118.215 324.116 118.556 325.413 118.556 326.733C118.556 328.053 118.215 329.35 117.567 330.5Z" fill="white"/>
<path d="M126.568 377.066V366.199C126.572 365.647 126.466 365.098 126.257 364.587C126.047 364.075 125.738 363.611 125.347 363.22C124.956 362.829 124.492 362.52 123.98 362.31C123.469 362.101 122.92 361.995 122.368 361.999H64.6343V333.333C64.6343 330.981 63.7001 328.726 62.0372 327.063C60.3744 325.4 58.1192 324.466 55.7676 324.466C55.7676 324.466 45.7676 323.933 43.2342 332.433L34.3676 361.999C33.8717 361.995 33.3799 362.089 32.9209 362.277C32.4619 362.465 32.0449 362.742 31.6942 363.093C31.3436 363.443 31.0663 363.86 30.8786 364.319C30.6909 364.778 30.5965 365.27 30.601 365.766V377.066H126.568Z" fill="#2E3C5B"/>
<path d="M64.6336 361.167H34.3669V362.834H64.6336V361.167Z" fill="#516896"/>
<path d="M67.6755 210.489L50.0652 217.532L50.6841 219.08L68.2944 212.036L67.6755 210.489Z" fill="#516896"/>
<path d="M61.4001 245.766L60.7668 244.233L78.3668 237.166L79.0002 238.7L61.4001 245.766Z" fill="#516896"/>
<path d="M83.7008 286.2L83.1008 284.633L94.1675 280.2L94.8009 281.734L83.7008 286.2Z" fill="#516896"/>
<path d="M90.5342 303.1L89.9009 301.533L101.001 297.1L101.601 298.633L90.5342 303.1Z" fill="#516896"/>
<path d="M47.0665 290.067C48.7203 292.297 50.8204 294.159 53.2332 295.534C56.2817 297.091 59.6493 297.923 63.0725 297.964C66.4958 298.004 69.882 297.252 72.9665 295.767C75.3159 294.735 77.421 293.219 79.1442 291.318C80.8674 289.416 82.1699 287.173 82.9665 284.734C84.2306 279.326 83.4593 273.642 80.7999 268.767C79.5708 265.78 77.4902 263.22 74.8171 261.406C72.1441 259.592 68.9966 258.605 65.7665 258.567C55.7665 258.767 42.7331 266.434 42.7998 277.534C42.8358 282.062 44.3322 286.457 47.0665 290.067V290.067Z" fill="#2E3C5B"/>
<path d="M52.7334 286.133C53.8116 287.58 55.1725 288.794 56.7335 289.7C58.7244 290.704 60.918 291.24 63.1476 291.269C65.3771 291.298 67.5838 290.818 69.6001 289.866C71.1238 289.183 72.4887 288.19 73.6078 286.95C74.7268 285.711 75.5756 284.252 76.1001 282.666C76.9163 279.145 76.4184 275.447 74.7001 272.266C73.9053 270.313 72.5512 268.638 70.8076 267.452C69.064 266.266 67.0087 265.621 64.9001 265.6C58.4334 265.6 49.9001 270.7 49.9334 277.933C49.9526 280.898 50.9354 283.776 52.7334 286.133V286.133Z" fill="white"/>
<path d="M63.2332 287.566C61.6601 287.587 60.1089 287.196 58.7332 286.433C57.6335 285.808 56.6701 284.97 55.8999 283.966C54.6674 282.319 53.9903 280.323 53.9666 278.266C53.9666 273 59.9666 269.666 64.2999 269.6V271.266C60.7332 271.266 55.5666 274.066 55.6 278.266C55.6213 279.963 56.1816 281.609 57.1999 282.966C57.8249 283.789 58.6066 284.48 59.4999 285C60.6566 285.567 61.928 285.863 63.2165 285.863C64.5051 285.863 65.7766 285.567 66.9333 285C67.7941 284.624 68.5658 284.07 69.1977 283.375C69.8296 282.68 70.3074 281.859 70.6 280.966C71.0675 278.921 70.7711 276.775 69.7666 274.933L71.2666 274.2C72.4532 276.403 72.7855 278.967 72.1999 281.4C71.8471 282.527 71.2571 283.565 70.4693 284.445C69.6816 285.324 68.7145 286.025 67.6332 286.5C66.2642 287.178 64.761 287.543 63.2332 287.566V287.566Z" fill="#DDEBF7"/>
<path d="M46.4673 337.366C46.7556 338.439 47.2668 339.438 47.9674 340.3C48.8668 341.346 49.998 342.168 51.2711 342.701C52.5442 343.233 53.924 343.461 55.3007 343.366C56.33 343.329 57.3399 343.075 58.2645 342.621C59.1892 342.168 60.0079 341.524 60.6674 340.733C61.9243 338.9 62.4803 336.676 62.234 334.466C62.22 333.169 61.8277 331.904 61.1054 330.827C60.3831 329.749 59.362 328.906 58.1674 328.4C54.434 327 48.4007 327.9 46.7341 332.033C46.0815 333.737 45.9881 335.605 46.4673 337.366V337.366Z" fill="#5C71BC"/>
<path d="M51.2677 336.4C51.3887 336.808 51.5806 337.191 51.8344 337.533C52.1789 337.929 52.6121 338.238 53.0987 338.435C53.5852 338.632 54.1114 338.711 54.6344 338.666C55.026 338.659 55.4111 338.566 55.7625 338.393C56.114 338.22 56.423 337.972 56.6677 337.666C57.1598 336.982 57.3743 336.136 57.2678 335.3C57.2667 334.808 57.1206 334.328 56.8478 333.919C56.5751 333.509 56.1878 333.19 55.7344 333C55.2228 332.686 54.6289 332.533 54.0293 332.56C53.4298 332.587 52.8523 332.794 52.3713 333.153C51.8903 333.512 51.528 334.006 51.3313 334.573C51.1345 335.14 51.1124 335.753 51.2677 336.333V336.4Z" fill="white"/>
<path d="M67.9672 333.533C67.5031 330.082 67.627 326.577 68.3338 323.167L69.9338 323.6C69.2872 326.816 69.1858 330.117 69.6338 333.366L67.9672 333.533Z" fill="#DDEBF7"/>
<path d="M124.668 320.7C123.501 320.033 66.8011 320 65.6678 320.7C64.5345 321.4 64.3011 324.833 65.6678 325.3C67.0345 325.766 123.301 325.566 124.668 325.3C126.035 325.033 125.801 321.4 124.668 320.7Z" fill="#2E3C5B"/>
<path d="M129.267 367.1H28.2337C26.9818 367.1 25.967 368.114 25.967 369.366V376.4C25.967 377.651 26.9818 378.666 28.2337 378.666H129.267C130.519 378.666 131.534 377.651 131.534 376.4V369.366C131.534 368.114 130.519 367.1 129.267 367.1Z" fill="#5C71BC"/>
<path d="M105.7 333.333L105.5 331.7C109.404 331.324 113.279 330.69 117.1 329.8C117.562 328.438 117.777 327.004 117.733 325.566H119.4C119.4 327.3 119.133 330.333 118.033 331.133C114.001 332.254 109.871 332.991 105.7 333.333V333.333Z" fill="#DDEBF7"/>
<path d="M495.933 377.767H3.3335V379.434H495.933V377.767Z" fill="#2E3C5B"/>
</svg>
